G04 DipTrace 2.3.1.0*
%INTopMask.gbr*%
%MOIN*%
%ADD31C,0.1575*%
%ADD32C,0.122*%
%ADD39R,0.0866X0.0315*%
%ADD41C,0.1063*%
%ADD43R,0.1929X0.1429*%
%ADD45R,0.0551X0.0669*%
%ADD47R,0.0669X0.0551*%
%ADD49R,0.0669X0.0591*%
%ADD51C,0.126*%
%ADD53R,0.0779X0.0779*%
%ADD55C,0.0779*%
%ADD57R,0.063X0.0551*%
%ADD59R,0.0709X0.0787*%
%ADD61R,0.0512X0.0472*%
%ADD63R,0.0709X0.1142*%
%ADD65R,0.0591X0.0669*%
%FSLAX44Y44*%
G04*
G70*
G90*
G75*
G01*
%LNTopMask*%
%LPD*%
D65*
X13368Y21155D3*
X14116D3*
X11043D3*
X10295D3*
D63*
X13250Y19162D3*
X14353D3*
D61*
X13503Y17352D3*
X14172D3*
D59*
X11153Y19345D3*
X10050D3*
D57*
X12520Y10560D3*
X11620D3*
X12447Y12187D3*
X11547D3*
D31*
X19287Y26727D3*
D55*
X8643Y7242D3*
X9721D3*
X10800D3*
X11878D3*
X8093Y8362D3*
X9183D3*
X10261D3*
X11340D3*
D53*
X12422Y8366D3*
D32*
X15182Y7802D3*
X5341D3*
D51*
X18512Y9322D3*
Y11291D3*
Y5385D3*
Y7353D3*
X6147Y12712D3*
Y10744D3*
Y20587D3*
Y18618D3*
Y16650D3*
Y14681D3*
X18517Y14561D3*
Y16529D3*
Y18498D3*
Y20467D3*
Y22435D3*
Y24404D3*
D65*
X11823Y21155D3*
X12571D3*
D49*
X10133Y17092D3*
Y17840D3*
X8653Y16042D3*
Y15294D3*
X8693Y13702D3*
Y14450D3*
X11803Y17202D3*
Y17950D3*
X14293Y15855D3*
Y15106D3*
X15940Y14560D3*
Y15308D3*
D65*
X12455Y9947D3*
X11707D3*
X11597Y11577D3*
X12345D3*
X11823Y19405D3*
X12571D3*
D47*
X16257Y12127D3*
Y11143D3*
Y10159D3*
X13698Y12127D3*
Y11143D3*
Y10159D3*
D45*
X14977Y12816D3*
Y9470D3*
D43*
X5171Y25906D3*
X7172D3*
X9328D3*
X11328Y25907D3*
X13484Y25906D3*
X15485D3*
D41*
X11328Y22906D3*
X5171D3*
X7172D3*
X9328Y22905D3*
X13484Y22906D3*
X15485D3*
D39*
X13053Y14162D3*
Y14662D3*
Y15162D3*
Y15662D3*
X10927D3*
Y15162D3*
Y14662D3*
Y14162D3*
M02*
