G04 DipTrace 2.3.1.0*
%INBottomSilk.gbr*%
%MOIN*%
%ADD70C,0.0093*%
%FSLAX44Y44*%
G04*
G70*
G90*
G75*
G01*
%LNBotSilk*%
%LPD*%
X19881Y24269D2*
D70*
X20484Y24040D1*
X19881Y23810D1*
X20082Y23281D2*
X20484D1*
X20169D2*
X20111Y23338D1*
X20082Y23395D1*
Y23481D1*
X20111Y23539D1*
X20169Y23596D1*
X20255Y23625D1*
X20312D1*
X20398Y23596D1*
X20455Y23539D1*
X20484Y23481D1*
Y23395D1*
X20455Y23338D1*
X20398Y23281D1*
X19881Y23095D2*
X20484D1*
X20255Y22910D2*
Y22566D1*
X20197D1*
X20139Y22594D1*
X20111Y22623D1*
X20082Y22681D1*
Y22767D1*
X20111Y22824D1*
X20169Y22882D1*
X20255Y22910D1*
X20312D1*
X20398Y22882D1*
X20455Y22824D1*
X20484Y22767D1*
Y22681D1*
X20455Y22623D1*
X20398Y22566D1*
X20082Y22381D2*
X20484D1*
X20197D2*
X20111Y22294D1*
X20082Y22237D1*
Y22151D1*
X20111Y22093D1*
X20197Y22065D1*
X20484D1*
X19881Y21793D2*
X20370D1*
X20455Y21765D1*
X20484Y21707D1*
Y21650D1*
X20082Y21880D2*
Y21679D1*
X19881Y21465D2*
X19910Y21436D1*
X19881Y21407D1*
X19852Y21436D1*
X19881Y21465D1*
X20082Y21436D2*
X20484D1*
X20082Y21222D2*
X20484D1*
X20197D2*
X20111Y21136D1*
X20082Y21078D1*
Y20992D1*
X20111Y20935D1*
X20197Y20906D1*
X20484D1*
X19968Y19736D2*
X19910Y19793D1*
X19881Y19879D1*
Y19994D1*
X19910Y20080D1*
X19968Y20138D1*
X20025D1*
X20082Y20109D1*
X20111Y20080D1*
X20139Y20023D1*
X20197Y19851D1*
X20226Y19793D1*
X20255Y19764D1*
X20312Y19736D1*
X20398D1*
X20455Y19793D1*
X20484Y19879D1*
Y19994D1*
X20455Y20080D1*
X20398Y20138D1*
X19881Y19551D2*
X19910Y19522D1*
X19881Y19493D1*
X19852Y19522D1*
X19881Y19551D1*
X20082Y19522D2*
X20484D1*
X19881Y18963D2*
X20484D1*
X20169D2*
X20111Y19020D1*
X20082Y19078D1*
Y19164D1*
X20111Y19221D1*
X20169Y19279D1*
X20255Y19308D1*
X20312D1*
X20398Y19279D1*
X20455Y19221D1*
X20484Y19164D1*
Y19078D1*
X20455Y19020D1*
X20398Y18963D1*
X20255Y18778D2*
Y18434D1*
X20197D1*
X20139Y18462D1*
X20111Y18491D1*
X20082Y18549D1*
Y18635D1*
X20111Y18692D1*
X20169Y18750D1*
X20255Y18778D1*
X20312D1*
X20398Y18750D1*
X20455Y18692D1*
X20484Y18635D1*
Y18549D1*
X20455Y18491D1*
X20398Y18434D1*
X20082Y18249D2*
X20484D1*
X20255D2*
X20169Y18219D1*
X20111Y18162D1*
X20082Y18105D1*
Y18018D1*
X20169Y17517D2*
X20111Y17546D1*
X20082Y17632D1*
Y17718D1*
X20111Y17805D1*
X20169Y17833D1*
X20226Y17805D1*
X20255Y17747D1*
X20283Y17604D1*
X20312Y17546D1*
X20370Y17517D1*
X20398D1*
X20455Y17546D1*
X20484Y17632D1*
Y17718D1*
X20455Y17805D1*
X20398Y17833D1*
X19881Y17332D2*
X20484D1*
X20082Y17045D2*
X20370Y17332D1*
X20255Y17217D2*
X20484Y17017D1*
X19881Y16831D2*
X19910Y16803D1*
X19881Y16774D1*
X19852Y16803D1*
X19881Y16831D1*
X20082Y16803D2*
X20484D1*
X20082Y16559D2*
X20484Y16387D1*
X20599Y16444D1*
X20657Y16502D1*
X20685Y16559D1*
Y16588D1*
X20082Y16215D2*
X20484Y16387D1*
X20025Y15417D2*
X19997D1*
X19939Y15389D1*
X19911Y15360D1*
X19882Y15302D1*
Y15188D1*
X19911Y15131D1*
X19939Y15102D1*
X19997Y15073D1*
X20054D1*
X20112Y15102D1*
X20197Y15159D1*
X20484Y15446D1*
Y15044D1*
X19882Y14687D2*
X19911Y14773D1*
X19997Y14831D1*
X20140Y14859D1*
X20226D1*
X20370Y14831D1*
X20456Y14773D1*
X20484Y14687D1*
Y14630D1*
X20456Y14543D1*
X20370Y14486D1*
X20226Y14457D1*
X20140D1*
X19997Y14486D1*
X19911Y14543D1*
X19882Y14630D1*
Y14687D1*
X19997Y14486D2*
X20370Y14831D1*
X19997Y14272D2*
X19968Y14214D1*
X19882Y14128D1*
X20484D1*
X19882Y13885D2*
Y13570D1*
X20112Y13742D1*
Y13656D1*
X20140Y13599D1*
X20169Y13570D1*
X20255Y13541D1*
X20312D1*
X20398Y13570D1*
X20456Y13627D1*
X20484Y13713D1*
Y13800D1*
X20456Y13885D1*
X20427Y13914D1*
X20370Y13943D1*
X20025Y12342D2*
X19968Y12370D1*
X19910Y12428D1*
X19881Y12485D1*
Y12600D1*
X19910Y12658D1*
X19968Y12715D1*
X20025Y12744D1*
X20111Y12772D1*
X20255D1*
X20340Y12744D1*
X20398Y12715D1*
X20455Y12658D1*
X20484Y12600D1*
Y12485D1*
X20455Y12428D1*
X20398Y12370D1*
X20340Y12342D1*
X19881Y12157D2*
X20484D1*
X20197D2*
X20111Y12070D1*
X20082Y12013D1*
Y11927D1*
X20111Y11870D1*
X20197Y11841D1*
X20484D1*
X20082Y11656D2*
X20370D1*
X20455Y11627D1*
X20484Y11569D1*
Y11483D1*
X20455Y11426D1*
X20370Y11340D1*
X20082D2*
X20484D1*
X20082Y10811D2*
X20484D1*
X20169D2*
X20111Y10868D1*
X20082Y10925D1*
Y11011D1*
X20111Y11069D1*
X20169Y11126D1*
X20255Y11155D1*
X20312D1*
X20398Y11126D1*
X20455Y11069D1*
X20484Y11011D1*
Y10925D1*
X20455Y10868D1*
X20398Y10811D1*
X19997Y10042D2*
X19968Y9984D1*
X19882Y9898D1*
X20484D1*
Y9713D2*
X19882Y9311D1*
X20025Y9096D2*
X19997D1*
X19939Y9068D1*
X19911Y9039D1*
X19882Y8982D1*
Y8867D1*
X19911Y8810D1*
X19939Y8781D1*
X19997Y8752D1*
X20054D1*
X20112Y8781D1*
X20197Y8838D1*
X20484Y9126D1*
Y8724D1*
Y7496D2*
X19881Y7726D1*
X20484Y7955D1*
X20283Y7869D2*
Y7582D1*
X19881Y6727D2*
X20484Y6498D1*
X19881Y6268D1*
X19997Y6083D2*
X19968Y6025D1*
X19882Y5939D1*
X20484D1*
X20427Y5725D2*
X20456Y5754D1*
X20484Y5725D1*
X20456Y5696D1*
X20427Y5725D1*
X19882Y5338D2*
X19911Y5425D1*
X19997Y5482D1*
X20140Y5511D1*
X20226D1*
X20370Y5482D1*
X20456Y5425D1*
X20484Y5338D1*
Y5281D1*
X20456Y5195D1*
X20370Y5138D1*
X20226Y5109D1*
X20140D1*
X19997Y5138D1*
X19911Y5195D1*
X19882Y5281D1*
Y5338D1*
X19997Y5138D2*
X20370Y5482D1*
M02*
