M48
INCH
T01C0.015
T02C0.046
T03C0.0512
T04C0.063
T05C0.122
T06C0.1575
%
T01
X+009787Y+021127
X+009507Y+019327
X+009843Y+018681
X+009843Y+016492
X+010123Y+015442
X+010303Y+014652
X+010303Y+013900
X+010583Y+012702
X+010863Y+012422
X+011517Y+012687
X+012223Y+013854
X+011943Y+014662
X+011563Y+015162
X+011563Y+015662
X+011563Y+016706
X+012228Y+016672
X+012253Y+018401
X+011817Y+020107
X+012209Y+020586
X+012839Y+020284
X+014587Y+021137
X+014887Y+019157
X+014607Y+017337
X+014293Y+016672
X+014807Y+016557
X+014293Y+014611
X+016457Y+014547
X+016257Y+011609
X+015437Y+009447
X+013328Y+010625
X+012520Y+011026
X+011437Y+011057
X+010827Y+011027
X+010307Y+011417
X+009847Y+011987
X+008707Y+013217
X+007947Y+016492
X+011221Y+009947
T02
X+008643Y+007242
X+009721Y+007242
X+010800Y+007242
X+011878Y+007242
X+011340Y+008362
X+010261Y+008362
X+009183Y+008362
X+008093Y+008362
X+012422Y+008366
T03
X+018512Y+009322
X+018512Y+011291
X+018517Y+014561
X+018517Y+016529
X+018517Y+018498
X+018517Y+020467
X+018517Y+022435
X+018517Y+024404
X+006147Y+020587
X+006147Y+018618
X+006147Y+016650
X+006147Y+014681
X+006147Y+012712
X+006147Y+010744
X+018512Y+007353
X+018512Y+005385
T04
X+011328Y+022906
X+009328Y+022905
X+007172Y+022906
X+005171Y+022906
X+013484Y+022906
X+015485Y+022906
T05
X+015182Y+007802
X+005341Y+007802
T06
X+019287Y+026727
T00
M30
