G04 DipTrace 2.3.1.0*
%INTop.gbr*%
%MOIN*%
%ADD10C,0.01*%
%ADD14C,0.015*%
%ADD15R,0.0512X0.0591*%
%ADD16R,0.063X0.1063*%
%ADD17R,0.0433X0.0394*%
%ADD18R,0.063X0.0709*%
%ADD19R,0.0551X0.0472*%
%ADD20C,0.07*%
%ADD21R,0.07X0.07*%
%ADD22C,0.1181*%
%ADD23R,0.0591X0.0512*%
%ADD25R,0.0591X0.0472*%
%ADD26R,0.0472X0.0591*%
%ADD27R,0.185X0.135*%
%ADD28C,0.0984*%
%ADD29R,0.0787X0.0236*%
%ADD30C,0.03*%
%FSLAX44Y44*%
G04*
G70*
G90*
G75*
G01*
%LNTop*%
%LPD*%
X11517Y12687D2*
D14*
X11547D1*
Y12187D1*
X13328Y10625D2*
X13403Y10550D1*
Y10511D1*
X13756Y10159D1*
X13698D1*
X11517Y12687D2*
Y12997D1*
X11287Y13227D1*
X9327D1*
Y16187D1*
X11887D1*
X12412Y15662D1*
X13053D1*
X18512Y11291D2*
X17481D1*
X16739Y10550D1*
X13884D1*
X13698Y10736D1*
Y11143D1*
X16257Y10159D2*
X14730D1*
X14148Y9577D1*
X13637D1*
X13321D1*
X12932Y9966D1*
Y13162D1*
X12545Y13549D1*
X11358D1*
X10927Y14162D1*
X12455Y9947D2*
X12932Y9966D1*
X11878Y7242D2*
X13242D1*
X13637Y7637D1*
Y9577D1*
X16257Y11609D2*
Y11143D1*
X5171Y22906D2*
Y25906D1*
X9328Y22905D2*
Y25906D1*
X13484Y22906D2*
Y25906D1*
X9507Y19327D2*
D10*
X9525Y19345D1*
X10050D1*
X14116Y21155D2*
D14*
X14133Y21137D1*
X14587D1*
X14353Y19162D2*
X14358Y19157D1*
X14887D1*
X14172Y17352D2*
X14187Y17337D1*
X14607D1*
X9787Y21127D2*
D10*
X9815Y21155D1*
X10295D1*
X8707Y13217D2*
X8693Y13231D1*
Y13702D1*
X11620Y10560D2*
D14*
X11437Y10743D1*
Y11057D1*
X10827Y11027D2*
D10*
X10857Y11057D1*
X11437D1*
X11597Y11577D2*
D14*
X11437Y11417D1*
Y11057D1*
X15437Y9447D2*
D10*
X15414Y9470D1*
X14977D1*
X16457Y14547D2*
X16445Y14560D1*
X15940D1*
X18512Y9322D2*
D14*
X19258Y10068D1*
Y12586D1*
X19028Y12816D1*
X14977D1*
X7172Y25906D2*
D10*
Y22906D1*
X6147Y12712D2*
X7172Y13737D1*
Y22906D1*
X6147Y12712D2*
X8722D1*
X9217Y12217D1*
X9397Y12397D1*
X10863D1*
Y12422D1*
X14807Y16557D2*
X18517D1*
Y16529D1*
X9217Y12217D2*
Y8362D1*
X9183D1*
X13053Y14162D2*
X13402D1*
X13576Y14336D1*
Y16212D1*
X13396Y16392D1*
X10313D1*
X10133Y16572D1*
Y17092D1*
X7747D1*
X7567Y16912D1*
Y16367D1*
X7892Y16042D1*
X8653D1*
X12228Y16672D2*
Y17056D1*
X12082Y17202D1*
X11803D1*
X10927Y14662D2*
X11943D1*
X14293Y16672D2*
Y15855D1*
X12223Y13854D2*
Y14482D1*
X12403Y14662D1*
X13053D1*
X8693Y14450D2*
X8934D1*
X9118Y14266D1*
Y12882D1*
X9298Y12702D1*
X10583D1*
X8653Y15294D2*
X8693D1*
Y14450D1*
X14293Y15106D2*
X15257D1*
X15459Y15308D1*
X15940D1*
X10123Y15442D2*
X10403Y15162D1*
X10927D1*
X14293Y15106D2*
Y14611D1*
X11221Y9947D2*
X11707D1*
X12520Y11026D2*
Y10560D1*
X12345Y11577D2*
Y12187D1*
X12447D1*
X15485Y25906D2*
Y24877D1*
Y22906D1*
X13250Y19162D2*
Y19764D1*
X13010Y20004D1*
X12340D1*
X12209Y20135D1*
Y20586D1*
X10303Y13900D2*
Y14652D1*
X10307Y11417D2*
Y9727D1*
X10737Y9297D1*
Y8965D1*
X11340Y8362D1*
X11563Y16706D2*
X11197Y17072D1*
Y17660D1*
X11017Y17840D1*
X10133D1*
X13503Y17352D2*
Y17821D1*
X13236Y18088D1*
Y18108D1*
X12944Y18401D1*
X12253D1*
X13053Y15162D2*
X11563D1*
X15485Y24877D2*
X15497D1*
X15917Y24457D1*
X18517D1*
Y24404D1*
X13368Y21155D2*
Y21298D1*
X13797Y21727D1*
X14957D1*
X15485Y22255D1*
Y22906D1*
X12253Y18401D2*
X11931D1*
X11803Y18273D1*
Y17950D1*
X13250Y19162D2*
Y18122D1*
X13236Y18108D1*
X11563Y15662D2*
X10927D1*
X11563Y15162D2*
Y15662D1*
X13368Y21155D2*
X12571D1*
Y19405D2*
X12813Y19162D1*
X13250D1*
X12209Y20586D2*
X12571Y20949D1*
Y21155D1*
X11328Y25907D2*
Y22906D1*
X7947Y16492D2*
X9843D1*
X11817Y20107D2*
Y19405D1*
X11823D1*
X9843Y18681D2*
X9564D1*
X9127Y19117D1*
Y19877D1*
X9337Y20087D1*
X10557D1*
X10567Y20077D1*
X11817D1*
Y20107D1*
X12839Y20284D2*
Y20287D1*
X14687D1*
X14867Y20467D1*
X18517D1*
X11823Y21155D2*
X11827D1*
Y21677D1*
X11328Y22176D1*
Y22906D1*
X9847Y11987D2*
Y9417D1*
X10261Y9003D1*
Y8362D1*
X11823Y19405D2*
Y19345D1*
X11153D1*
X11043Y21155D2*
Y20390D1*
X10676Y20087D1*
X10557D1*
X11823Y21155D2*
X11429D1*
X11043D1*
D30*
X11517Y12687D3*
D3*
X9787Y21127D3*
X9507Y19327D3*
X14587Y21137D3*
X14887Y19157D3*
X14607Y17337D3*
X8707Y13217D3*
X11437Y11057D3*
X10827Y11027D3*
X15437Y9447D3*
X16457Y14547D3*
X16257Y11609D3*
X11221Y9947D3*
X12520Y11026D3*
X13328Y10625D3*
X12253Y18401D3*
X10303Y14652D3*
Y13900D3*
X10307Y11417D3*
X11563Y16706D3*
X12209Y20586D3*
X11563Y15162D3*
Y15662D3*
X9843Y16492D3*
X7947D3*
X12839Y20284D3*
X9847Y11987D3*
X9843Y18681D3*
X11817Y20107D3*
X10863Y12422D3*
X14807Y16557D3*
X11943Y14662D3*
X14293Y16672D3*
X12228D3*
X10583Y12702D3*
X12223Y13854D3*
X10123Y15442D3*
X14293Y14611D3*
D15*
X13368Y21155D3*
X14116D3*
X11043D3*
X10295D3*
D16*
X13250Y19162D3*
X14353D3*
D17*
X13503Y17352D3*
X14172D3*
D18*
X11153Y19345D3*
X10050D3*
D19*
X12520Y10560D3*
X11620D3*
X12447Y12187D3*
X11547D3*
D20*
X8643Y7242D3*
X9721D3*
X10800D3*
X11878D3*
X8093Y8362D3*
X9183D3*
X10261D3*
X11340D3*
D21*
X12422Y8366D3*
D22*
X18512Y9322D3*
Y11291D3*
Y5385D3*
Y7353D3*
X6147Y12712D3*
Y10744D3*
Y20587D3*
Y18618D3*
Y16650D3*
Y14681D3*
X18517Y14561D3*
Y16529D3*
Y18498D3*
Y20467D3*
Y22435D3*
Y24404D3*
D15*
X11823Y21155D3*
X12571D3*
D23*
X10133Y17092D3*
Y17840D3*
X8653Y16042D3*
Y15294D3*
X8693Y13702D3*
Y14450D3*
X11803Y17202D3*
Y17950D3*
X14293Y15855D3*
Y15106D3*
X15940Y14560D3*
Y15308D3*
D15*
X12455Y9947D3*
X11707D3*
X11597Y11577D3*
X12345D3*
X11823Y19405D3*
X12571D3*
D25*
X16257Y12127D3*
Y11143D3*
Y10159D3*
X13698Y12127D3*
Y11143D3*
Y10159D3*
D26*
X14977Y12816D3*
Y9470D3*
D27*
X5171Y25906D3*
X7172D3*
X9328D3*
X11328Y25907D3*
X13484Y25906D3*
X15485D3*
D28*
X11328Y22906D3*
X5171D3*
X7172D3*
X9328Y22905D3*
X13484Y22906D3*
X15485D3*
D29*
X13053Y14162D3*
Y14662D3*
Y15162D3*
Y15662D3*
X10927D3*
Y15162D3*
Y14662D3*
Y14162D3*
M02*
