G04 DipTrace 2.3.1.0*
%INBottom.gbr*%
%MOIN*%
%ADD10C,0.01*%
%ADD11C,0.006*%
%ADD14C,0.015*%
%ADD20C,0.07*%
%ADD21R,0.07X0.07*%
%ADD22C,0.1181*%
%ADD28C,0.0984*%
%ADD30C,0.03*%
%FSLAX44Y44*%
G04*
G70*
G90*
G75*
G01*
%LNBottom*%
%LPD*%
X13328Y10625D2*
D14*
Y10876D1*
X11517Y12687D1*
X13328Y10625D2*
Y9272D1*
X12422Y8366D1*
X16257Y11609D2*
Y7640D1*
X18512Y5385D1*
Y9322D2*
Y8559D1*
Y7353D1*
X10863Y12422D2*
D10*
Y13294D1*
X11016Y13447D1*
X14027D1*
X14767Y14187D1*
X14817D1*
Y14667D1*
X14807D1*
Y16557D1*
X14293Y16672D2*
X12228D1*
Y14947D1*
X11943Y14662D1*
X12223Y13854D2*
X10763D1*
X10583Y13674D1*
Y12702D1*
X14293Y14611D2*
X13862Y14180D1*
X10203D1*
X10023Y14360D1*
Y15342D1*
X10123Y15442D1*
X12520Y11026D2*
Y10127D1*
X12340Y9947D1*
X11221D1*
X11563Y15662D2*
Y16706D1*
Y15162D2*
X10512D1*
X10303Y14953D1*
Y14652D1*
X10307Y11417D2*
Y13900D1*
X10303D1*
X6147Y20587D2*
X12209D1*
Y20586D1*
X11563Y16706D2*
Y17711D1*
X12253Y18401D1*
X9843Y18681D2*
Y16492D1*
X7947D2*
X7790Y16650D1*
X6147D1*
X9843Y16492D2*
Y11987D1*
X9847D1*
X11817Y20107D2*
Y20297D1*
X12839D1*
Y20284D1*
D30*
X11517Y12687D3*
D3*
X9787Y21127D3*
X9507Y19327D3*
X14587Y21137D3*
X14887Y19157D3*
X14607Y17337D3*
X8707Y13217D3*
X11437Y11057D3*
X10827Y11027D3*
X15437Y9447D3*
X16457Y14547D3*
X16257Y11609D3*
X11221Y9947D3*
X12520Y11026D3*
X13328Y10625D3*
X12253Y18401D3*
X10303Y14652D3*
Y13900D3*
X10307Y11417D3*
X11563Y16706D3*
X12209Y20586D3*
X11563Y15162D3*
Y15662D3*
X9843Y16492D3*
X7947D3*
X12839Y20284D3*
X9847Y11987D3*
X9843Y18681D3*
X11817Y20107D3*
X10863Y12422D3*
X14807Y16557D3*
X11943Y14662D3*
X14293Y16672D3*
X12228D3*
X10583Y12702D3*
X12223Y13854D3*
X10123Y15442D3*
X14293Y14611D3*
X14421Y13148D2*
D11*
X15321D1*
X14420Y13090D2*
X15321D1*
X14419Y13031D2*
X15321D1*
X11188Y12972D2*
X15321D1*
X11188Y12914D2*
X11425D1*
X11608D2*
X20731D1*
X11188Y12855D2*
X11337D1*
X11698D2*
X20731D1*
X11188Y12796D2*
X11295D1*
X11740D2*
X20731D1*
X11187Y12738D2*
X11274D1*
X11760D2*
X20731D1*
X11187Y12679D2*
X11269D1*
X11768D2*
X20731D1*
X11186Y12620D2*
X11278D1*
X11826D2*
X20731D1*
X11186Y12561D2*
X11304D1*
X11885D2*
X20731D1*
X11185Y12503D2*
X11354D1*
X11944D2*
X20731D1*
X11185Y12444D2*
X11518D1*
X12002D2*
X20731D1*
X11184Y12385D2*
X11576D1*
X12061D2*
X20731D1*
X11183Y12327D2*
X11635D1*
X12119D2*
X20731D1*
X11183Y12268D2*
X11693D1*
X12178D2*
X20731D1*
X11182Y12209D2*
X11752D1*
X12238D2*
X20731D1*
X11182Y12151D2*
X11811D1*
X12296D2*
X20731D1*
X11181Y12092D2*
X11869D1*
X12355D2*
X20731D1*
X11181Y12033D2*
X11928D1*
X12413D2*
X20731D1*
X11180Y11975D2*
X11986D1*
X12472D2*
X20731D1*
X11180Y11916D2*
X12046D1*
X12531D2*
X18231D1*
X18793D2*
X20730D1*
X11179Y11857D2*
X12105D1*
X12589D2*
X18124D1*
X18899D2*
X20730D1*
X11179Y11799D2*
X12163D1*
X12648D2*
X16100D1*
X16414D2*
X18049D1*
X18974D2*
X20730D1*
X11178Y11740D2*
X12222D1*
X12706D2*
X16047D1*
X16467D2*
X17991D1*
X19033D2*
X20730D1*
X11178Y11681D2*
X12280D1*
X12765D2*
X16020D1*
X16495D2*
X17946D1*
X19078D2*
X20730D1*
X11177Y11622D2*
X12339D1*
X12824D2*
X16009D1*
X16505D2*
X17910D1*
X19115D2*
X20730D1*
X11177Y11564D2*
X12398D1*
X12883D2*
X16013D1*
X16501D2*
X17881D1*
X19144D2*
X20730D1*
X11176Y11505D2*
X12456D1*
X12942D2*
X16032D1*
X16482D2*
X17858D1*
X19167D2*
X20730D1*
X11175Y11446D2*
X12515D1*
X13000D2*
X16071D1*
X16442D2*
X17841D1*
X19183D2*
X20730D1*
X11175Y11388D2*
X12573D1*
X13059D2*
X16083D1*
X16430D2*
X17830D1*
X19194D2*
X20730D1*
X11174Y11329D2*
X12632D1*
X13118D2*
X16083D1*
X16430D2*
X17824D1*
X19199D2*
X20730D1*
X11174Y11270D2*
X12691D1*
X13176D2*
X16083D1*
X16430D2*
X17823D1*
X19200D2*
X20730D1*
X11173Y11212D2*
X12359D1*
X12682D2*
X12750D1*
X13235D2*
X16083D1*
X16430D2*
X17828D1*
X19197D2*
X20730D1*
X11173Y11153D2*
X12308D1*
X12733D2*
X12809D1*
X13293D2*
X16083D1*
X16430D2*
X17837D1*
X19187D2*
X20730D1*
X11173Y11094D2*
X12282D1*
X12759D2*
X12867D1*
X13352D2*
X16083D1*
X16430D2*
X17852D1*
X19172D2*
X20730D1*
X11173Y11036D2*
X12272D1*
X12768D2*
X12926D1*
X13411D2*
X16083D1*
X16430D2*
X17873D1*
X19152D2*
X20730D1*
X11172Y10977D2*
X12277D1*
X12763D2*
X12985D1*
X13468D2*
X16083D1*
X16430D2*
X17900D1*
X19124D2*
X20730D1*
X11172Y10918D2*
X12298D1*
X12744D2*
X13043D1*
X13496D2*
X16083D1*
X16430D2*
X17934D1*
X19090D2*
X20730D1*
X11171Y10860D2*
X12338D1*
X12703D2*
X13102D1*
X13501D2*
X16083D1*
X16430D2*
X17977D1*
X19048D2*
X20729D1*
X11171Y10801D2*
X12372D1*
X12669D2*
X13155D1*
X13501D2*
X16083D1*
X16430D2*
X18031D1*
X18993D2*
X20729D1*
X11170Y10742D2*
X12372D1*
X12669D2*
X13110D1*
X13545D2*
X16083D1*
X16430D2*
X18100D1*
X18925D2*
X20729D1*
X11170Y10683D2*
X12372D1*
X12669D2*
X13087D1*
X13569D2*
X16083D1*
X16430D2*
X18195D1*
X18830D2*
X20729D1*
X11169Y10625D2*
X12372D1*
X12669D2*
X13080D1*
X13576D2*
X16083D1*
X16430D2*
X18356D1*
X18668D2*
X20729D1*
X11168Y10566D2*
X12372D1*
X12669D2*
X13087D1*
X13569D2*
X16083D1*
X16430D2*
X20729D1*
X11168Y10507D2*
X12372D1*
X12669D2*
X13110D1*
X13545D2*
X16083D1*
X16430D2*
X20729D1*
X11167Y10449D2*
X12372D1*
X12669D2*
X13155D1*
X13501D2*
X16083D1*
X16430D2*
X20729D1*
X11167Y10390D2*
X12372D1*
X12669D2*
X13155D1*
X13501D2*
X16083D1*
X16430D2*
X20729D1*
X10873Y10331D2*
X12372D1*
X12669D2*
X13155D1*
X13501D2*
X16083D1*
X16430D2*
X20729D1*
X10873Y10273D2*
X12372D1*
X12669D2*
X13155D1*
X13501D2*
X16083D1*
X16430D2*
X20729D1*
X10873Y10214D2*
X12372D1*
X12669D2*
X13155D1*
X13501D2*
X16083D1*
X16430D2*
X20729D1*
X10873Y10155D2*
X11091D1*
X11351D2*
X12342D1*
X12669D2*
X13155D1*
X13501D2*
X16083D1*
X16430D2*
X20729D1*
X10873Y10097D2*
X11025D1*
X11418D2*
X12283D1*
X12665D2*
X13155D1*
X13501D2*
X16083D1*
X16430D2*
X20729D1*
X10873Y10038D2*
X10991D1*
X12637D2*
X13155D1*
X13501D2*
X16083D1*
X16430D2*
X20729D1*
X10873Y9979D2*
X10975D1*
X12580D2*
X13155D1*
X13501D2*
X16083D1*
X16430D2*
X18319D1*
X18705D2*
X20729D1*
X10873Y9921D2*
X10974D1*
X12521D2*
X13155D1*
X13501D2*
X16083D1*
X16430D2*
X18177D1*
X18848D2*
X20729D1*
X10873Y9862D2*
X10988D1*
X12463D2*
X13155D1*
X13501D2*
X16083D1*
X16430D2*
X18088D1*
X18937D2*
X20729D1*
X10873Y9803D2*
X11020D1*
X11422D2*
X13155D1*
X13501D2*
X16083D1*
X16430D2*
X18021D1*
X19003D2*
X20728D1*
X10873Y9744D2*
X11082D1*
X11360D2*
X13155D1*
X13501D2*
X16083D1*
X16430D2*
X17970D1*
X19055D2*
X20728D1*
X10873Y9686D2*
X13155D1*
X13501D2*
X16083D1*
X16430D2*
X17928D1*
X19096D2*
X20728D1*
X10873Y9627D2*
X13155D1*
X13501D2*
X16083D1*
X16430D2*
X17895D1*
X19129D2*
X20728D1*
X10873Y9568D2*
X13155D1*
X13501D2*
X16083D1*
X16430D2*
X17869D1*
X19155D2*
X20728D1*
X10873Y9510D2*
X13155D1*
X13501D2*
X16083D1*
X16430D2*
X17850D1*
X19175D2*
X20728D1*
X11953Y9451D2*
X13155D1*
X13501D2*
X16083D1*
X16430D2*
X17836D1*
X19189D2*
X20728D1*
X11953Y9392D2*
X13155D1*
X13501D2*
X16083D1*
X16430D2*
X17827D1*
X19198D2*
X20728D1*
X11953Y9334D2*
X13147D1*
X13501D2*
X16083D1*
X16430D2*
X17823D1*
X19200D2*
X20728D1*
X11953Y9275D2*
X13088D1*
X13501D2*
X16083D1*
X16430D2*
X17825D1*
X19199D2*
X20728D1*
X11953Y9216D2*
X13029D1*
X13491D2*
X16083D1*
X16430D2*
X17832D1*
X19193D2*
X20728D1*
X11953Y9158D2*
X12971D1*
X13455D2*
X16083D1*
X16430D2*
X17843D1*
X19181D2*
X20728D1*
X11953Y9099D2*
X12912D1*
X13397D2*
X16083D1*
X16430D2*
X17861D1*
X19163D2*
X20728D1*
X11953Y9040D2*
X12854D1*
X13338D2*
X16083D1*
X16430D2*
X17884D1*
X19139D2*
X20728D1*
X11953Y8981D2*
X12795D1*
X13280D2*
X16083D1*
X16430D2*
X17914D1*
X19109D2*
X20728D1*
X11953Y8923D2*
X12736D1*
X13221D2*
X16083D1*
X16430D2*
X17953D1*
X19072D2*
X20728D1*
X11953Y8864D2*
X12677D1*
X13162D2*
X16083D1*
X16430D2*
X18000D1*
X19024D2*
X20728D1*
X11953Y8805D2*
X11973D1*
X13104D2*
X16083D1*
X16430D2*
X18060D1*
X18964D2*
X20728D1*
X11953Y8747D2*
X11973D1*
X13045D2*
X16083D1*
X16430D2*
X18139D1*
X18885D2*
X20727D1*
X11953Y8688D2*
X11973D1*
X12987D2*
X16083D1*
X16430D2*
X18254D1*
X18771D2*
X20727D1*
X11953Y8629D2*
X11973D1*
X12928D2*
X16083D1*
X16430D2*
X18339D1*
X18686D2*
X20727D1*
X11953Y8571D2*
X11973D1*
X12870D2*
X15150D1*
X15213D2*
X16083D1*
X16430D2*
X18339D1*
X18686D2*
X20727D1*
X11953Y8512D2*
X11973D1*
X12870D2*
X14880D1*
X15483D2*
X16083D1*
X16430D2*
X18339D1*
X18686D2*
X20727D1*
X11953Y8453D2*
X11973D1*
X12870D2*
X14766D1*
X15597D2*
X16083D1*
X16430D2*
X18339D1*
X18686D2*
X20727D1*
X11953Y8395D2*
X11973D1*
X12870D2*
X14686D1*
X15677D2*
X16083D1*
X16430D2*
X18339D1*
X18686D2*
X20727D1*
X11953Y8336D2*
X11973D1*
X12870D2*
X14622D1*
X15741D2*
X16083D1*
X16430D2*
X18339D1*
X18686D2*
X20727D1*
X11953Y8277D2*
X11973D1*
X12870D2*
X14571D1*
X15793D2*
X16083D1*
X16430D2*
X18339D1*
X18686D2*
X20727D1*
X11953Y8219D2*
X11973D1*
X12870D2*
X14529D1*
X15834D2*
X16083D1*
X16430D2*
X18339D1*
X18686D2*
X20727D1*
X11953Y8160D2*
X11973D1*
X12870D2*
X14495D1*
X15868D2*
X16083D1*
X16430D2*
X18339D1*
X18686D2*
X20727D1*
X11953Y8101D2*
X11973D1*
X12870D2*
X14467D1*
X15896D2*
X16083D1*
X16430D2*
X18339D1*
X18686D2*
X20727D1*
X11953Y8042D2*
X11973D1*
X12870D2*
X14446D1*
X15918D2*
X16083D1*
X16430D2*
X18339D1*
X18686D2*
X20727D1*
X11953Y7984D2*
X11973D1*
X12870D2*
X14429D1*
X15935D2*
X16083D1*
X16430D2*
X18243D1*
X18780D2*
X20727D1*
X11953Y7925D2*
X11973D1*
X12870D2*
X14416D1*
X15946D2*
X16083D1*
X16430D2*
X18133D1*
X18892D2*
X20727D1*
X11953Y7866D2*
X14409D1*
X15954D2*
X16083D1*
X16430D2*
X18056D1*
X18969D2*
X20727D1*
X11946Y7808D2*
X14407D1*
X15957D2*
X16083D1*
X16430D2*
X17997D1*
X19028D2*
X20727D1*
X11827Y7749D2*
X14409D1*
X15955D2*
X16083D1*
X16430D2*
X17950D1*
X19075D2*
X20727D1*
X11701Y7690D2*
X14415D1*
X15948D2*
X16083D1*
X16449D2*
X17912D1*
X19112D2*
X20726D1*
X11611Y7632D2*
X11662D1*
X12094D2*
X14426D1*
X15937D2*
X16084D1*
X16508D2*
X17882D1*
X19141D2*
X20726D1*
X11552Y7573D2*
X11578D1*
X12178D2*
X14442D1*
X15921D2*
X16097D1*
X16567D2*
X17860D1*
X19165D2*
X20726D1*
X11494Y7514D2*
X11523D1*
X12233D2*
X14462D1*
X15900D2*
X16141D1*
X16625D2*
X17842D1*
X19182D2*
X20726D1*
X12271Y7456D2*
X14490D1*
X15874D2*
X16199D1*
X16684D2*
X17831D1*
X19193D2*
X20726D1*
X12298Y7397D2*
X14522D1*
X15840D2*
X16258D1*
X16742D2*
X17824D1*
X19199D2*
X20726D1*
X12315Y7338D2*
X14563D1*
X15800D2*
X16316D1*
X16801D2*
X17823D1*
X19200D2*
X20726D1*
X12325Y7280D2*
X14611D1*
X15751D2*
X16375D1*
X16860D2*
X17827D1*
X19197D2*
X20726D1*
X12326Y7221D2*
X14672D1*
X15690D2*
X16434D1*
X16918D2*
X17836D1*
X19188D2*
X20726D1*
X11416Y7162D2*
X11437D1*
X12319D2*
X14750D1*
X15613D2*
X16492D1*
X16978D2*
X17851D1*
X19173D2*
X20726D1*
X11417Y7103D2*
X11451D1*
X12304D2*
X14855D1*
X15508D2*
X16551D1*
X17036D2*
X17870D1*
X19153D2*
X20726D1*
X11417Y7045D2*
X11476D1*
X12280D2*
X15045D1*
X15318D2*
X16609D1*
X17095D2*
X17897D1*
X19127D2*
X20726D1*
X11417Y6986D2*
X11511D1*
X12244D2*
X16668D1*
X17154D2*
X17930D1*
X19093D2*
X20726D1*
X11417Y6927D2*
X11562D1*
X12194D2*
X16727D1*
X17212D2*
X17972D1*
X19051D2*
X20726D1*
X11417Y6869D2*
X11635D1*
X12120D2*
X16786D1*
X17271D2*
X18025D1*
X18999D2*
X20726D1*
X11417Y6810D2*
X11778D1*
X11977D2*
X16845D1*
X17329D2*
X18092D1*
X18931D2*
X20726D1*
X11418Y6751D2*
X16903D1*
X17388D2*
X18184D1*
X18840D2*
X20726D1*
X11418Y6693D2*
X16962D1*
X17447D2*
X18334D1*
X18690D2*
X20726D1*
X11418Y6634D2*
X17021D1*
X17505D2*
X20725D1*
X11418Y6575D2*
X17079D1*
X17564D2*
X20725D1*
X11418Y6517D2*
X17138D1*
X17623D2*
X20725D1*
X11418Y6458D2*
X17196D1*
X17682D2*
X20725D1*
X11419Y6399D2*
X17255D1*
X17741D2*
X20725D1*
X11419Y6341D2*
X17314D1*
X17799D2*
X20725D1*
X11419Y6282D2*
X17372D1*
X17858D2*
X20725D1*
X11419Y6223D2*
X17431D1*
X17916D2*
X20725D1*
X11419Y6164D2*
X17490D1*
X17975D2*
X20725D1*
X11420Y6106D2*
X17549D1*
X18034D2*
X20725D1*
X11420Y6047D2*
X17608D1*
X18092D2*
X18339D1*
X18685D2*
X20725D1*
X11420Y5988D2*
X17666D1*
X18151D2*
X18186D1*
X18838D2*
X20725D1*
X11420Y5930D2*
X17725D1*
X18929D2*
X20725D1*
X11420Y5871D2*
X17783D1*
X18998D2*
X20725D1*
X11420Y5812D2*
X17842D1*
X19050D2*
X20725D1*
X11421Y5754D2*
X17901D1*
X19093D2*
X20725D1*
X11421Y5695D2*
X17897D1*
X19126D2*
X20725D1*
X11421Y5636D2*
X17871D1*
X19153D2*
X20725D1*
X11421Y5578D2*
X17851D1*
X19173D2*
X20724D1*
X11421Y5519D2*
X17836D1*
X19187D2*
X20724D1*
X11421Y5460D2*
X17827D1*
X19197D2*
X20724D1*
X11422Y5402D2*
X17823D1*
X19200D2*
X20724D1*
X11422Y5343D2*
X17824D1*
X19199D2*
X20724D1*
X11422Y5284D2*
X17831D1*
X19194D2*
X20724D1*
X11422Y5225D2*
X17842D1*
X19182D2*
X20724D1*
X11422Y5167D2*
X17859D1*
X19165D2*
X20724D1*
X11422Y5108D2*
X17881D1*
X19142D2*
X20724D1*
X11423Y5049D2*
X17911D1*
X19113D2*
X20724D1*
X11423Y4991D2*
X17949D1*
X19076D2*
X20724D1*
X11423Y4932D2*
X17995D1*
X19029D2*
X20724D1*
X11423Y4873D2*
X18054D1*
X18971D2*
X20724D1*
X11423Y4815D2*
X18131D1*
X18894D2*
X20724D1*
X11423Y4756D2*
X18241D1*
X18784D2*
X20724D1*
X11424Y4697D2*
X20724D1*
X11424Y4639D2*
X20724D1*
X11424Y4580D2*
X20724D1*
X11424Y4521D2*
X20723D1*
X11424Y4463D2*
X20723D1*
X11424Y4404D2*
X20723D1*
X11425Y4345D2*
X20723D1*
X11425Y4286D2*
X20723D1*
X11425Y4228D2*
X20723D1*
X11425Y4169D2*
X20723D1*
X12319Y7212D2*
X12311Y7153D1*
X12295Y7095D1*
X12271Y7040D1*
X12240Y6989D1*
X12203Y6942D1*
X12159Y6901D1*
X12110Y6866D1*
X12057Y6838D1*
X12001Y6817D1*
X11943Y6805D1*
X11883Y6800D1*
X11823Y6803D1*
X11764Y6815D1*
X11707Y6834D1*
X11654Y6861D1*
X11604Y6895D1*
X11560Y6935D1*
X11521Y6981D1*
X11489Y7031D1*
X11464Y7086D1*
X11447Y7143D1*
X11437Y7203D1*
X11436Y7263D1*
X11443Y7322D1*
X11457Y7380D1*
X11480Y7436D1*
X11510Y7488D1*
X11546Y7535D1*
X11589Y7577D1*
X11637Y7613D1*
X11689Y7643D1*
X11745Y7664D1*
X11803Y7678D1*
X11863Y7685D1*
X11923Y7682D1*
X11982Y7672D1*
X12039Y7654D1*
X12093Y7629D1*
X12144Y7596D1*
X12189Y7557D1*
X12229Y7512D1*
X12262Y7462D1*
X12288Y7408D1*
X12307Y7351D1*
X12317Y7292D1*
X12320Y7242D1*
X12319Y7212D1*
X12009Y8809D2*
X12627D1*
X13161Y9342D1*
X13160Y10449D1*
X13137Y10475D1*
X13120Y10500D1*
X13106Y10526D1*
X13096Y10554D1*
X13089Y10583D1*
X13086Y10613D1*
Y10643D1*
X13090Y10673D1*
X13098Y10702D1*
X13109Y10730D1*
X13124Y10756D1*
X13142Y10780D1*
X13160Y10800D1*
Y10808D1*
X12170Y11797D1*
X11522Y12445D1*
X11478Y12448D1*
X11449Y12454D1*
X11421Y12465D1*
X11394Y12478D1*
X11369Y12495D1*
X11346Y12515D1*
X11326Y12537D1*
X11309Y12562D1*
X11296Y12588D1*
X11285Y12617D1*
X11278Y12646D1*
X11275Y12675D1*
Y12705D1*
X11279Y12735D1*
X11287Y12764D1*
X11298Y12792D1*
X11313Y12818D1*
X11331Y12842D1*
X11351Y12864D1*
X11375Y12883D1*
X11400Y12899D1*
X11427Y12912D1*
X11455Y12921D1*
X11485Y12927D1*
X11515Y12929D1*
X11545Y12928D1*
X11574Y12923D1*
X11603Y12914D1*
X11630Y12901D1*
X11656Y12886D1*
X11679Y12867D1*
X11700Y12846D1*
X11718Y12822D1*
X11734Y12796D1*
X11745Y12768D1*
X11754Y12740D1*
X11759Y12687D1*
Y12682D1*
X12060Y12381D1*
X13446Y10995D1*
X13465Y10972D1*
X13480Y10946D1*
X13490Y10917D1*
X13494Y10892D1*
X13495Y10800D1*
X13529Y10760D1*
X13544Y10734D1*
X13556Y10706D1*
X13564Y10677D1*
X13570Y10625D1*
X13568Y10595D1*
X13563Y10565D1*
X13554Y10537D1*
X13541Y10510D1*
X13525Y10484D1*
X13495Y10450D1*
Y9272D1*
X13492Y9242D1*
X13484Y9213D1*
X13471Y9186D1*
X13457Y9166D1*
X13319Y9026D1*
X12865Y8572D1*
X12864Y8149D1*
Y7924D1*
X11979D1*
Y8809D1*
X12009D1*
X15950Y7772D2*
X15945Y7713D1*
X15936Y7653D1*
X15922Y7595D1*
X15904Y7538D1*
X15881Y7482D1*
X15854Y7429D1*
X15822Y7378D1*
X15787Y7329D1*
X15749Y7283D1*
X15706Y7241D1*
X15661Y7201D1*
X15613Y7166D1*
X15562Y7134D1*
X15509Y7106D1*
X15453Y7083D1*
X15396Y7064D1*
X15338Y7050D1*
X15279Y7040D1*
X15219Y7034D1*
X15159D1*
X15099Y7038D1*
X15040Y7047D1*
X14982Y7060D1*
X14924Y7078D1*
X14869Y7100D1*
X14815Y7126D1*
X14763Y7157D1*
X14714Y7192D1*
X14668Y7230D1*
X14625Y7272D1*
X14585Y7317D1*
X14549Y7365D1*
X14517Y7415D1*
X14489Y7468D1*
X14465Y7523D1*
X14445Y7580D1*
X14430Y7638D1*
X14420Y7697D1*
X14414Y7757D1*
X14413Y7817D1*
X14416Y7877D1*
X14424Y7936D1*
X14437Y7995D1*
X14454Y8052D1*
X14476Y8108D1*
X14502Y8162D1*
X14532Y8214D1*
X14566Y8263D1*
X14604Y8310D1*
X14645Y8353D1*
X14690Y8394D1*
X14737Y8430D1*
X14788Y8463D1*
X14840Y8491D1*
X14895Y8516D1*
X14952Y8536D1*
X15010Y8552D1*
X15069Y8563D1*
X15128Y8569D1*
X15188Y8571D1*
X15248Y8568D1*
X15308Y8561D1*
X15366Y8549D1*
X15424Y8532D1*
X15480Y8511D1*
X15534Y8486D1*
X15587Y8456D1*
X15636Y8422D1*
X15683Y8385D1*
X15727Y8344D1*
X15768Y8300D1*
X15805Y8253D1*
X15838Y8203D1*
X15867Y8150D1*
X15892Y8096D1*
X15913Y8040D1*
X15929Y7982D1*
X15941Y7923D1*
X15948Y7863D1*
X15950Y7802D1*
Y7772D1*
X19194Y9292D2*
X19189Y9233D1*
X19179Y9174D1*
X19163Y9116D1*
X19142Y9059D1*
X19117Y9005D1*
X19087Y8953D1*
X19052Y8904D1*
X19013Y8859D1*
X18971Y8816D1*
X18924Y8778D1*
X18875Y8744D1*
X18823Y8714D1*
X18768Y8689D1*
X18712Y8669D1*
X18678Y8660D1*
X18680Y8529D1*
Y8016D1*
X18739Y7997D1*
X18795Y7975D1*
X18848Y7948D1*
X18899Y7916D1*
X18947Y7880D1*
X18992Y7840D1*
X19032Y7796D1*
X19069Y7748D1*
X19102Y7698D1*
X19130Y7645D1*
X19153Y7590D1*
X19171Y7532D1*
X19184Y7474D1*
X19192Y7414D1*
X19195Y7353D1*
X19192Y7294D1*
X19185Y7234D1*
X19171Y7176D1*
X19153Y7118D1*
X19130Y7063D1*
X19102Y7010D1*
X19070Y6959D1*
X19033Y6912D1*
X18992Y6868D1*
X18948Y6828D1*
X18900Y6792D1*
X18849Y6760D1*
X18796Y6732D1*
X18740Y6710D1*
X18683Y6692D1*
X18624Y6680D1*
X18565Y6673D1*
X18505Y6671D1*
X18445Y6674D1*
X18386Y6682D1*
X18327Y6696D1*
X18270Y6715D1*
X18215Y6738D1*
X18162Y6767D1*
X18112Y6800D1*
X18065Y6837D1*
X18022Y6878D1*
X17982Y6923D1*
X17946Y6971D1*
X17915Y7022D1*
X17888Y7076D1*
X17866Y7132D1*
X17849Y7190D1*
X17837Y7248D1*
X17831Y7308D1*
X17829Y7368D1*
X17833Y7428D1*
X17842Y7487D1*
X17857Y7545D1*
X17876Y7602D1*
X17900Y7657D1*
X17929Y7709D1*
X17963Y7759D1*
X18000Y7806D1*
X18042Y7849D1*
X18087Y7888D1*
X18136Y7924D1*
X18187Y7954D1*
X18241Y7980D1*
X18297Y8002D1*
X18345Y8016D1*
Y8589D1*
Y8661D1*
X18299Y8674D1*
X18242Y8695D1*
X18188Y8721D1*
X18137Y8752D1*
X18088Y8787D1*
X18043Y8826D1*
X18001Y8869D1*
X17963Y8916D1*
X17930Y8966D1*
X17901Y9018D1*
X17876Y9073D1*
X17857Y9130D1*
X17843Y9188D1*
X17833Y9247D1*
X17829Y9307D1*
X17831Y9367D1*
X17837Y9426D1*
X17849Y9485D1*
X17866Y9543D1*
X17888Y9599D1*
X17914Y9652D1*
X17945Y9704D1*
X17981Y9752D1*
X18021Y9797D1*
X18064Y9838D1*
X18111Y9875D1*
X18161Y9908D1*
X18214Y9937D1*
X18269Y9961D1*
X18326Y9980D1*
X18385Y9993D1*
X18444Y10002D1*
X18504Y10005D1*
X18564Y10003D1*
X18623Y9996D1*
X18682Y9984D1*
X18739Y9966D1*
X18795Y9944D1*
X18848Y9917D1*
X18899Y9885D1*
X18947Y9849D1*
X18992Y9809D1*
X19032Y9765D1*
X19069Y9717D1*
X19102Y9667D1*
X19130Y9614D1*
X19153Y9559D1*
X19171Y9501D1*
X19184Y9443D1*
X19192Y9383D1*
X19195Y9322D1*
X19194Y9292D1*
Y11261D2*
X19189Y11201D1*
X19179Y11142D1*
X19163Y11084D1*
X19142Y11028D1*
X19117Y10974D1*
X19087Y10922D1*
X19052Y10873D1*
X19013Y10827D1*
X18971Y10785D1*
X18924Y10747D1*
X18875Y10712D1*
X18823Y10683D1*
X18768Y10658D1*
X18712Y10638D1*
X18654Y10623D1*
X18595Y10613D1*
X18535Y10608D1*
X18475Y10609D1*
X18415Y10615D1*
X18356Y10626D1*
X18299Y10642D1*
X18242Y10663D1*
X18188Y10690D1*
X18137Y10720D1*
X18088Y10755D1*
X18043Y10795D1*
X18001Y10838D1*
X17963Y10884D1*
X17930Y10934D1*
X17901Y10986D1*
X17876Y11041D1*
X17857Y11098D1*
X17843Y11156D1*
X17833Y11216D1*
X17829Y11275D1*
X17831Y11335D1*
X17837Y11395D1*
X17849Y11454D1*
X17866Y11511D1*
X17888Y11567D1*
X17914Y11621D1*
X17945Y11672D1*
X17981Y11720D1*
X18021Y11765D1*
X18064Y11807D1*
X18111Y11844D1*
X18161Y11877D1*
X18214Y11905D1*
X18269Y11929D1*
X18326Y11948D1*
X18385Y11962D1*
X18444Y11970D1*
X18504Y11974D1*
X18564Y11972D1*
X18623Y11965D1*
X18682Y11952D1*
X18739Y11935D1*
X18795Y11913D1*
X18848Y11885D1*
X18899Y11854D1*
X18947Y11817D1*
X18992Y11777D1*
X19032Y11733D1*
X19069Y11686D1*
X19102Y11635D1*
X19130Y11582D1*
X19153Y11527D1*
X19171Y11470D1*
X19184Y11411D1*
X19192Y11352D1*
X19195Y11291D1*
X19194Y11261D1*
Y5355D2*
X19189Y5295D1*
X19179Y5236D1*
X19163Y5178D1*
X19142Y5122D1*
X19117Y5068D1*
X19087Y5016D1*
X19052Y4967D1*
X19013Y4921D1*
X18971Y4879D1*
X18925Y4841D1*
X18875Y4806D1*
X18823Y4777D1*
X18768Y4752D1*
X18712Y4732D1*
X18654Y4717D1*
X18595Y4707D1*
X18535Y4702D1*
X18475Y4703D1*
X18415Y4709D1*
X18356Y4720D1*
X18299Y4736D1*
X18242Y4758D1*
X18188Y4784D1*
X18137Y4814D1*
X18088Y4849D1*
X18043Y4889D1*
X18001Y4932D1*
X17963Y4978D1*
X17930Y5028D1*
X17901Y5081D1*
X17876Y5135D1*
X17857Y5192D1*
X17843Y5250D1*
X17833Y5310D1*
X17829Y5369D1*
X17831Y5429D1*
X17837Y5489D1*
X17849Y5548D1*
X17866Y5605D1*
X17888Y5661D1*
X17914Y5715D1*
X17926Y5735D1*
X17609Y6051D1*
X16139Y7522D1*
X16119Y7545D1*
X16105Y7571D1*
X16095Y7599D1*
X16090Y7624D1*
Y7820D1*
Y11434D1*
X16066Y11459D1*
X16049Y11484D1*
X16036Y11510D1*
X16025Y11538D1*
X16018Y11568D1*
X16015Y11597D1*
Y11627D1*
X16019Y11657D1*
X16027Y11686D1*
X16038Y11714D1*
X16053Y11740D1*
X16071Y11764D1*
X16091Y11786D1*
X16115Y11805D1*
X16140Y11821D1*
X16167Y11834D1*
X16195Y11843D1*
X16225Y11849D1*
X16255Y11851D1*
X16285Y11850D1*
X16314Y11845D1*
X16343Y11836D1*
X16370Y11823D1*
X16396Y11808D1*
X16419Y11789D1*
X16440Y11768D1*
X16458Y11744D1*
X16474Y11718D1*
X16485Y11690D1*
X16494Y11662D1*
X16499Y11609D1*
X16498Y11579D1*
X16492Y11550D1*
X16483Y11521D1*
X16470Y11494D1*
X16454Y11468D1*
X16424Y11434D1*
Y7769D1*
Y7710D1*
X17924Y6210D1*
X18162Y5972D1*
X18214Y5999D1*
X18269Y6023D1*
X18326Y6042D1*
X18385Y6056D1*
X18444Y6065D1*
X18504Y6068D1*
X18564Y6066D1*
X18623Y6059D1*
X18682Y6046D1*
X18739Y6029D1*
X18795Y6007D1*
X18848Y5979D1*
X18899Y5948D1*
X18947Y5911D1*
X18992Y5871D1*
X19032Y5827D1*
X19069Y5780D1*
X19102Y5729D1*
X19130Y5676D1*
X19153Y5621D1*
X19171Y5564D1*
X19184Y5505D1*
X19192Y5446D1*
X19195Y5385D1*
X19194Y5355D1*
X11417Y9804D2*
X11400Y9783D1*
X11378Y9762D1*
X11354Y9744D1*
X11328Y9729D1*
X11300Y9718D1*
X11271Y9710D1*
X11242Y9706D1*
X11212Y9705D1*
X11182Y9708D1*
X11153Y9714D1*
X11125Y9725D1*
X11098Y9738D1*
X11073Y9755D1*
X11051Y9775D1*
X11031Y9797D1*
X11014Y9822D1*
X11000Y9848D1*
X10989Y9877D1*
X10982Y9906D1*
X10979Y9935D1*
Y9965D1*
X10984Y9995D1*
X10991Y10024D1*
X11003Y10052D1*
X11017Y10078D1*
X11035Y10102D1*
X11056Y10124D1*
X11079Y10143D1*
X11104Y10159D1*
X11131Y10172D1*
X11160Y10181D1*
X11189Y10187D1*
X11219Y10189D1*
X11249Y10188D1*
X11278Y10183D1*
X11307Y10174D1*
X11334Y10161D1*
X11360Y10146D1*
X11383Y10127D1*
X11404Y10106D1*
X11417Y10089D1*
X11581D1*
X12282Y10090D1*
X12378Y10187D1*
Y10829D1*
X12350Y10854D1*
X12330Y10876D1*
X12313Y10901D1*
X12299Y10927D1*
X12288Y10956D1*
X12282Y10985D1*
X12278Y11015D1*
X12279Y11045D1*
X12283Y11074D1*
X12291Y11103D1*
X12302Y11131D1*
X12316Y11157D1*
X12334Y11181D1*
X12355Y11203D1*
X12378Y11222D1*
X12403Y11238D1*
X12430Y11251D1*
X12459Y11261D1*
X12488Y11266D1*
X12518Y11268D1*
X12548Y11267D1*
X12578Y11262D1*
X12606Y11253D1*
X12634Y11240D1*
X12659Y11225D1*
X12683Y11206D1*
X12704Y11185D1*
X12722Y11161D1*
X12737Y11135D1*
X12749Y11107D1*
X12757Y11079D1*
X12763Y11026D1*
X12761Y10996D1*
X12755Y10967D1*
X12746Y10938D1*
X12734Y10911D1*
X12718Y10885D1*
X12699Y10862D1*
X12663Y10831D1*
Y10127D1*
X12660Y10097D1*
X12650Y10069D1*
X12638Y10047D1*
X12600Y10005D1*
X12441Y9846D1*
X12418Y9827D1*
X12391Y9814D1*
X12368Y9807D1*
X12310Y9805D1*
X11417D1*
X11522Y12445D2*
X11478Y12448D1*
X11449Y12454D1*
X11421Y12465D1*
X11394Y12478D1*
X11369Y12495D1*
X11346Y12515D1*
X11326Y12537D1*
X11309Y12562D1*
X11296Y12588D1*
X11285Y12617D1*
X11278Y12646D1*
X11275Y12675D1*
Y12705D1*
X11279Y12735D1*
X11287Y12764D1*
X11298Y12792D1*
X11313Y12818D1*
X11331Y12842D1*
X11351Y12864D1*
X11375Y12883D1*
X11400Y12899D1*
X11427Y12912D1*
X11455Y12921D1*
X11485Y12927D1*
X11515Y12929D1*
X11545Y12928D1*
X11574Y12923D1*
X11603Y12914D1*
X11630Y12901D1*
X11656Y12886D1*
X11679Y12867D1*
X11700Y12846D1*
X11718Y12822D1*
X11734Y12796D1*
X11745Y12768D1*
X11754Y12740D1*
X11759Y12687D1*
Y12682D1*
X11637Y7663D2*
X11484Y7511D1*
X11410Y7320D1*
X11419Y4148D1*
X20729D1*
X20737Y12967D1*
X16937Y12968D1*
X16179Y12967D1*
X15357D1*
X15332Y12982D1*
X15327Y12997D1*
Y13207D1*
X14416Y13206D1*
X14413Y13004D1*
X14398Y12979D1*
X14383Y12974D1*
X11183Y12973D1*
X11161Y10388D1*
X11146Y10363D1*
X11131Y10358D1*
X10867Y10357D1*
Y9487D1*
X11917D1*
X11942Y9472D1*
X11947Y9457D1*
Y7827D1*
X11932Y7802D1*
X11848Y7762D1*
X11636Y7663D1*
X4133Y27688D2*
X8121D1*
X8433D2*
X12221D1*
X12563D2*
X20741D1*
X4133Y27630D2*
X8121D1*
X8433D2*
X12221D1*
X12563D2*
X19119D1*
X19455D2*
X20741D1*
X4133Y27571D2*
X8121D1*
X8433D2*
X12221D1*
X12563D2*
X18922D1*
X19652D2*
X20741D1*
X4133Y27512D2*
X8121D1*
X8433D2*
X12221D1*
X12563D2*
X18807D1*
X19766D2*
X20741D1*
X4133Y27454D2*
X8121D1*
X8433D2*
X12221D1*
X12563D2*
X18721D1*
X19853D2*
X20741D1*
X4133Y27395D2*
X8121D1*
X8433D2*
X12221D1*
X12563D2*
X18653D1*
X19921D2*
X20741D1*
X4133Y27336D2*
X8121D1*
X8433D2*
X12221D1*
X12563D2*
X18596D1*
X19978D2*
X20741D1*
X4133Y27278D2*
X8121D1*
X8433D2*
X12221D1*
X12563D2*
X18548D1*
X20026D2*
X20741D1*
X4133Y27219D2*
X8121D1*
X8433D2*
X12221D1*
X12563D2*
X18506D1*
X20067D2*
X20741D1*
X4133Y27160D2*
X8121D1*
X8433D2*
X12221D1*
X12563D2*
X18473D1*
X20101D2*
X20741D1*
X4133Y27101D2*
X8121D1*
X8433D2*
X12221D1*
X12563D2*
X18444D1*
X20130D2*
X20741D1*
X4133Y27043D2*
X8121D1*
X8433D2*
X12221D1*
X12563D2*
X18420D1*
X20153D2*
X20741D1*
X4133Y26984D2*
X8121D1*
X8433D2*
X12221D1*
X12563D2*
X18401D1*
X20173D2*
X20741D1*
X4133Y26925D2*
X8121D1*
X8433D2*
X12221D1*
X12563D2*
X18386D1*
X20188D2*
X20741D1*
X4133Y26867D2*
X8121D1*
X8433D2*
X12221D1*
X12563D2*
X18374D1*
X20199D2*
X20741D1*
X4133Y26808D2*
X8121D1*
X8433D2*
X12221D1*
X12563D2*
X18368D1*
X20206D2*
X20741D1*
X4133Y26749D2*
X8121D1*
X8433D2*
X12221D1*
X12563D2*
X18364D1*
X20210D2*
X20741D1*
X4133Y26691D2*
X8121D1*
X8433D2*
X12221D1*
X12563D2*
X18365D1*
X20209D2*
X20741D1*
X4133Y26632D2*
X8121D1*
X8433D2*
X12221D1*
X12563D2*
X18369D1*
X20205D2*
X20741D1*
X4133Y26573D2*
X8121D1*
X8433D2*
X12221D1*
X12563D2*
X18377D1*
X20197D2*
X20741D1*
X4133Y26515D2*
X8121D1*
X8433D2*
X12221D1*
X12563D2*
X18388D1*
X20185D2*
X20741D1*
X4133Y26456D2*
X8121D1*
X8433D2*
X12221D1*
X12563D2*
X18405D1*
X20168D2*
X20741D1*
X4133Y26397D2*
X8121D1*
X8433D2*
X12221D1*
X12563D2*
X18425D1*
X20149D2*
X20741D1*
X4133Y26339D2*
X8121D1*
X8433D2*
X12221D1*
X12563D2*
X18450D1*
X20123D2*
X20741D1*
X4133Y26280D2*
X8121D1*
X8433D2*
X12221D1*
X12563D2*
X18480D1*
X20093D2*
X20741D1*
X4133Y26221D2*
X8121D1*
X8433D2*
X12221D1*
X12563D2*
X18516D1*
X20058D2*
X20741D1*
X4133Y26162D2*
X8121D1*
X8433D2*
X12221D1*
X12563D2*
X18558D1*
X20016D2*
X20741D1*
X4133Y26104D2*
X8121D1*
X8433D2*
X12221D1*
X12563D2*
X18609D1*
X19965D2*
X20741D1*
X4133Y26045D2*
X8121D1*
X8433D2*
X12221D1*
X12563D2*
X18668D1*
X19906D2*
X20741D1*
X4133Y25986D2*
X8121D1*
X8433D2*
X12221D1*
X12563D2*
X18740D1*
X19834D2*
X20741D1*
X4133Y25928D2*
X8121D1*
X8433D2*
X12221D1*
X12563D2*
X18832D1*
X19742D2*
X20741D1*
X4133Y25869D2*
X8121D1*
X8433D2*
X12221D1*
X12563D2*
X18957D1*
X19616D2*
X20741D1*
X4133Y25810D2*
X8121D1*
X8433D2*
X12221D1*
X12563D2*
X19260D1*
X19313D2*
X20741D1*
X4133Y25752D2*
X8121D1*
X8433D2*
X12221D1*
X12563D2*
X20741D1*
X4133Y25693D2*
X8121D1*
X8433D2*
X12221D1*
X12563D2*
X20741D1*
X4133Y25634D2*
X8121D1*
X8433D2*
X12221D1*
X12563D2*
X20741D1*
X4133Y25576D2*
X8121D1*
X8433D2*
X12221D1*
X12563D2*
X20741D1*
X4133Y25517D2*
X8121D1*
X8433D2*
X12221D1*
X12563D2*
X20741D1*
X4133Y25458D2*
X8121D1*
X8433D2*
X12221D1*
X12563D2*
X20741D1*
X4133Y25400D2*
X8121D1*
X8433D2*
X12221D1*
X12563D2*
X20741D1*
X4133Y25341D2*
X8121D1*
X8433D2*
X12221D1*
X12563D2*
X20741D1*
X4133Y25282D2*
X8121D1*
X8433D2*
X12221D1*
X12563D2*
X20741D1*
X4133Y25223D2*
X8121D1*
X8433D2*
X12221D1*
X12563D2*
X20741D1*
X4133Y25165D2*
X8121D1*
X8433D2*
X12221D1*
X12563D2*
X20741D1*
X4133Y25106D2*
X8121D1*
X8433D2*
X12221D1*
X12563D2*
X18478D1*
X18555D2*
X20741D1*
X4133Y25047D2*
X8121D1*
X8433D2*
X12221D1*
X12563D2*
X18228D1*
X18806D2*
X20741D1*
X4133Y24989D2*
X8121D1*
X8433D2*
X12221D1*
X12563D2*
X18121D1*
X18913D2*
X20741D1*
X4133Y24930D2*
X8121D1*
X8433D2*
X12221D1*
X12563D2*
X18045D1*
X18989D2*
X20741D1*
X4133Y24871D2*
X8121D1*
X8433D2*
X12221D1*
X12563D2*
X17986D1*
X19048D2*
X20741D1*
X4133Y24813D2*
X8121D1*
X8433D2*
X12221D1*
X12563D2*
X17939D1*
X19095D2*
X20741D1*
X4133Y24754D2*
X8121D1*
X8433D2*
X12221D1*
X12563D2*
X17902D1*
X19133D2*
X20741D1*
X4133Y24695D2*
X8121D1*
X8433D2*
X12221D1*
X12563D2*
X17872D1*
X19163D2*
X20741D1*
X4133Y24637D2*
X8121D1*
X8433D2*
X12221D1*
X12563D2*
X17847D1*
X19186D2*
X20741D1*
X4133Y24578D2*
X8121D1*
X8433D2*
X12221D1*
X12563D2*
X17830D1*
X19204D2*
X20741D1*
X4133Y24519D2*
X8121D1*
X8433D2*
X12221D1*
X12563D2*
X17817D1*
X19216D2*
X20741D1*
X4133Y24461D2*
X8121D1*
X8433D2*
X12221D1*
X12563D2*
X17811D1*
X19223D2*
X20741D1*
X4133Y24402D2*
X8121D1*
X8433D2*
X12221D1*
X12563D2*
X17808D1*
X19225D2*
X20741D1*
X4133Y24343D2*
X8121D1*
X8433D2*
X12221D1*
X12563D2*
X17811D1*
X19223D2*
X20741D1*
X4133Y24284D2*
X8121D1*
X8433D2*
X12221D1*
X12563D2*
X17818D1*
X19216D2*
X20741D1*
X4133Y24226D2*
X8121D1*
X8433D2*
X12221D1*
X12563D2*
X17831D1*
X19203D2*
X20741D1*
X4133Y24167D2*
X8121D1*
X8433D2*
X12221D1*
X12563D2*
X17849D1*
X19185D2*
X20741D1*
X4133Y24108D2*
X8121D1*
X8433D2*
X12221D1*
X12563D2*
X17874D1*
X19161D2*
X20741D1*
X4133Y24050D2*
X8121D1*
X8433D2*
X12221D1*
X12563D2*
X17904D1*
X19130D2*
X20741D1*
X4133Y23991D2*
X8121D1*
X8433D2*
X12221D1*
X12563D2*
X17942D1*
X19091D2*
X20741D1*
X4133Y23932D2*
X8121D1*
X8433D2*
X12221D1*
X12563D2*
X17990D1*
X19044D2*
X20741D1*
X4133Y23874D2*
X8121D1*
X8433D2*
X12221D1*
X12563D2*
X18050D1*
X18984D2*
X20741D1*
X4133Y23815D2*
X8121D1*
X8433D2*
X12221D1*
X12563D2*
X18128D1*
X18907D2*
X20741D1*
X4133Y23756D2*
X8121D1*
X8433D2*
X12221D1*
X12563D2*
X18238D1*
X18796D2*
X20741D1*
X4133Y23698D2*
X8121D1*
X8433D2*
X12221D1*
X12563D2*
X20741D1*
X4133Y23639D2*
X8121D1*
X8433D2*
X12221D1*
X12563D2*
X20741D1*
X4133Y23580D2*
X8121D1*
X8433D2*
X12221D1*
X12563D2*
X20741D1*
X4133Y23521D2*
X8121D1*
X8433D2*
X12221D1*
X12563D2*
X20741D1*
X4133Y23463D2*
X4931D1*
X5411D2*
X6931D1*
X7412D2*
X8121D1*
X8433D2*
X9088D1*
X9567D2*
X11086D1*
X11570D2*
X12221D1*
X12563D2*
X13243D1*
X13725D2*
X15243D1*
X15727D2*
X20741D1*
X4133Y23404D2*
X4824D1*
X5519D2*
X6824D1*
X7519D2*
X8121D1*
X8433D2*
X8981D1*
X9675D2*
X10979D1*
X11677D2*
X12221D1*
X12563D2*
X13136D1*
X13833D2*
X15136D1*
X15833D2*
X20741D1*
X4133Y23345D2*
X4751D1*
X5592D2*
X6751D1*
X7592D2*
X8121D1*
X8433D2*
X8907D1*
X9748D2*
X10907D1*
X11750D2*
X12221D1*
X12563D2*
X13063D1*
X13905D2*
X15064D1*
X15906D2*
X20741D1*
X4133Y23287D2*
X4696D1*
X5647D2*
X6697D1*
X7646D2*
X8121D1*
X8433D2*
X8853D1*
X9803D2*
X10853D1*
X11803D2*
X12221D1*
X12563D2*
X13009D1*
X13959D2*
X15010D1*
X15960D2*
X20741D1*
X4133Y23228D2*
X4654D1*
X5689D2*
X6655D1*
X7688D2*
X8121D1*
X8433D2*
X8811D1*
X9845D2*
X10811D1*
X11845D2*
X12221D1*
X12563D2*
X12967D1*
X14002D2*
X14967D1*
X16002D2*
X20741D1*
X4133Y23169D2*
X4622D1*
X5722D2*
X6622D1*
X7721D2*
X8121D1*
X8433D2*
X8778D1*
X9878D2*
X10778D1*
X11878D2*
X12221D1*
X12563D2*
X12935D1*
X14034D2*
X14935D1*
X16035D2*
X20741D1*
X4133Y23111D2*
X4597D1*
X5746D2*
X6597D1*
X7746D2*
X8121D1*
X8433D2*
X8754D1*
X9902D2*
X10753D1*
X11903D2*
X12221D1*
X12563D2*
X12910D1*
X14059D2*
X14910D1*
X16059D2*
X18316D1*
X18718D2*
X20741D1*
X4133Y23052D2*
X4579D1*
X5764D2*
X6580D1*
X7764D2*
X8121D1*
X8433D2*
X8736D1*
X9920D2*
X10736D1*
X11920D2*
X12221D1*
X12563D2*
X12892D1*
X14077D2*
X14892D1*
X16077D2*
X18174D1*
X18861D2*
X20741D1*
X4133Y22993D2*
X4568D1*
X5775D2*
X6567D1*
X7776D2*
X8121D1*
X8433D2*
X8724D1*
X9932D2*
X10724D1*
X11933D2*
X12221D1*
X12563D2*
X12881D1*
X14089D2*
X14881D1*
X16089D2*
X18084D1*
X18951D2*
X20741D1*
X4133Y22935D2*
X4562D1*
X5781D2*
X6562D1*
X7781D2*
X8121D1*
X8433D2*
X8718D1*
X9938D2*
X10719D1*
X11938D2*
X12221D1*
X12563D2*
X12875D1*
X14094D2*
X14876D1*
X16095D2*
X18016D1*
X19018D2*
X20741D1*
X4133Y22876D2*
X4562D1*
X5781D2*
X6562D1*
X7781D2*
X8121D1*
X8433D2*
X8718D1*
X9938D2*
X10719D1*
X11937D2*
X12221D1*
X12563D2*
X12875D1*
X14094D2*
X14876D1*
X16094D2*
X17964D1*
X19071D2*
X20741D1*
X4133Y22817D2*
X4568D1*
X5775D2*
X6567D1*
X7776D2*
X8121D1*
X8433D2*
X8724D1*
X9932D2*
X10724D1*
X11932D2*
X12221D1*
X12563D2*
X12881D1*
X14088D2*
X14881D1*
X16088D2*
X17921D1*
X19113D2*
X20741D1*
X4133Y22759D2*
X4579D1*
X5764D2*
X6580D1*
X7763D2*
X8121D1*
X8433D2*
X8736D1*
X9920D2*
X10736D1*
X11920D2*
X12221D1*
X12563D2*
X12893D1*
X14077D2*
X14892D1*
X16077D2*
X17887D1*
X19148D2*
X20741D1*
X4133Y22700D2*
X4597D1*
X5746D2*
X6597D1*
X7746D2*
X8121D1*
X8433D2*
X8754D1*
X9902D2*
X10754D1*
X11903D2*
X12221D1*
X12563D2*
X12911D1*
X14059D2*
X14911D1*
X16059D2*
X17860D1*
X19174D2*
X20741D1*
X4133Y22641D2*
X4622D1*
X5721D2*
X6622D1*
X7721D2*
X8121D1*
X8433D2*
X8778D1*
X9878D2*
X10779D1*
X11877D2*
X12221D1*
X12563D2*
X12935D1*
X14033D2*
X14936D1*
X16034D2*
X17839D1*
X19195D2*
X20741D1*
X4133Y22582D2*
X4655D1*
X5688D2*
X6655D1*
X7688D2*
X8121D1*
X8433D2*
X8811D1*
X9845D2*
X10811D1*
X11844D2*
X12221D1*
X12563D2*
X12968D1*
X14001D2*
X14968D1*
X16001D2*
X17824D1*
X19210D2*
X20741D1*
X4133Y22524D2*
X4697D1*
X5646D2*
X6697D1*
X7646D2*
X8121D1*
X8433D2*
X8853D1*
X9803D2*
X10854D1*
X11802D2*
X12221D1*
X12563D2*
X13010D1*
X13958D2*
X15011D1*
X15959D2*
X17814D1*
X19221D2*
X20741D1*
X4133Y22465D2*
X4751D1*
X5591D2*
X6752D1*
X7592D2*
X8121D1*
X8433D2*
X8907D1*
X9748D2*
X10909D1*
X11747D2*
X12221D1*
X12563D2*
X13065D1*
X13904D2*
X15066D1*
X15904D2*
X17809D1*
X19225D2*
X20741D1*
X4133Y22406D2*
X4825D1*
X5518D2*
X6824D1*
X7519D2*
X8121D1*
X8433D2*
X8981D1*
X9675D2*
X10982D1*
X11674D2*
X12221D1*
X12563D2*
X13138D1*
X13831D2*
X15139D1*
X15831D2*
X17809D1*
X19225D2*
X20741D1*
X4133Y22348D2*
X4932D1*
X5410D2*
X6933D1*
X7410D2*
X8121D1*
X8433D2*
X9088D1*
X9567D2*
X11091D1*
X11565D2*
X12221D1*
X12563D2*
X13246D1*
X13722D2*
X15248D1*
X15722D2*
X17814D1*
X19221D2*
X20741D1*
X4133Y22289D2*
X8121D1*
X8433D2*
X12221D1*
X12563D2*
X17824D1*
X19210D2*
X20741D1*
X4133Y22230D2*
X8121D1*
X8428D2*
X17839D1*
X19195D2*
X20741D1*
X4133Y22172D2*
X17860D1*
X19175D2*
X20741D1*
X4133Y22113D2*
X17887D1*
X19148D2*
X20741D1*
X4133Y22054D2*
X17921D1*
X19114D2*
X20741D1*
X4133Y21996D2*
X17963D1*
X19071D2*
X20741D1*
X4133Y21937D2*
X18015D1*
X19018D2*
X20741D1*
X4133Y21878D2*
X18083D1*
X18952D2*
X20741D1*
X4133Y21820D2*
X18173D1*
X18862D2*
X20741D1*
X4133Y21761D2*
X18314D1*
X18720D2*
X20741D1*
X4133Y21702D2*
X20741D1*
X4133Y21643D2*
X20741D1*
X6973Y21585D2*
X20741D1*
X6973Y21526D2*
X20741D1*
X6973Y21467D2*
X17791D1*
X6973Y21409D2*
X17791D1*
X6973Y21350D2*
X17791D1*
X4133Y21291D2*
X17791D1*
X4133Y21233D2*
X5865D1*
X6429D2*
X20731D1*
X4133Y21174D2*
X5756D1*
X6539D2*
X20731D1*
X4133Y21115D2*
X5679D1*
X6616D2*
X18240D1*
X18793D2*
X20731D1*
X4133Y21057D2*
X5619D1*
X6676D2*
X18130D1*
X18905D2*
X20731D1*
X4133Y20998D2*
X5572D1*
X6723D2*
X18051D1*
X18983D2*
X20731D1*
X4133Y20939D2*
X5533D1*
X6761D2*
X17991D1*
X19043D2*
X20731D1*
X4133Y20881D2*
X5503D1*
X6791D2*
X17943D1*
X19091D2*
X20731D1*
X4133Y20822D2*
X5479D1*
X6816D2*
X12086D1*
X12330D2*
X17905D1*
X19130D2*
X20731D1*
X4133Y20763D2*
X5461D1*
X6833D2*
X12009D1*
X12409D2*
X17874D1*
X19160D2*
X20731D1*
X4133Y20704D2*
X5448D1*
X12449D2*
X17849D1*
X19184D2*
X20731D1*
X4133Y20646D2*
X5441D1*
X12470D2*
X17831D1*
X19203D2*
X20731D1*
X4133Y20587D2*
X5439D1*
X12477D2*
X17818D1*
X19215D2*
X20731D1*
X4133Y20528D2*
X5441D1*
X12471D2*
X12739D1*
X12939D2*
X17811D1*
X19223D2*
X20731D1*
X4133Y20470D2*
X5448D1*
X12449D2*
X12649D1*
X13030D2*
X17808D1*
X19225D2*
X20731D1*
X4133Y20411D2*
X5461D1*
X6833D2*
X11696D1*
X13074D2*
X17810D1*
X19223D2*
X20731D1*
X4133Y20352D2*
X5479D1*
X6816D2*
X11658D1*
X13099D2*
X17817D1*
X19217D2*
X20731D1*
X4133Y20294D2*
X5502D1*
X6792D2*
X11627D1*
X13107D2*
X17830D1*
X19204D2*
X20731D1*
X4133Y20235D2*
X5532D1*
X6762D2*
X11582D1*
X13103D2*
X17847D1*
X19187D2*
X20731D1*
X4133Y20176D2*
X5571D1*
X6724D2*
X11558D1*
X13085D2*
X17871D1*
X19163D2*
X20731D1*
X4133Y20118D2*
X5618D1*
X6677D2*
X11549D1*
X12085D2*
X12630D1*
X13048D2*
X17901D1*
X19133D2*
X20731D1*
X4133Y20059D2*
X5677D1*
X6618D2*
X11553D1*
X12081D2*
X12698D1*
X12981D2*
X17938D1*
X19096D2*
X20731D1*
X4133Y20000D2*
X5754D1*
X6541D2*
X11572D1*
X12063D2*
X17985D1*
X19049D2*
X20731D1*
X4133Y19942D2*
X5862D1*
X6432D2*
X11607D1*
X12026D2*
X18043D1*
X18990D2*
X20731D1*
X4133Y19883D2*
X11675D1*
X11959D2*
X18119D1*
X18914D2*
X20731D1*
X4133Y19824D2*
X18226D1*
X18808D2*
X20731D1*
X4133Y19765D2*
X18461D1*
X18573D2*
X20731D1*
X4133Y19707D2*
X20731D1*
X4133Y19648D2*
X20731D1*
X4133Y19589D2*
X20731D1*
X4133Y19531D2*
X20731D1*
X4133Y19472D2*
X20731D1*
X4133Y19413D2*
X20731D1*
X4133Y19355D2*
X20731D1*
X4133Y19296D2*
X5956D1*
X6338D2*
X20731D1*
X4133Y19237D2*
X5809D1*
X6486D2*
X20731D1*
X4133Y19179D2*
X5717D1*
X6578D2*
X18336D1*
X18698D2*
X20731D1*
X4133Y19120D2*
X5650D1*
X6645D2*
X18184D1*
X18850D2*
X20731D1*
X4133Y19061D2*
X5596D1*
X6698D2*
X18090D1*
X18943D2*
X20731D1*
X4133Y19003D2*
X5553D1*
X6742D2*
X18022D1*
X19013D2*
X20731D1*
X4133Y18944D2*
X5518D1*
X6776D2*
X17967D1*
X19066D2*
X20731D1*
X4133Y18885D2*
X5491D1*
X6803D2*
X9673D1*
X10013D2*
X17924D1*
X19109D2*
X20731D1*
X4133Y18826D2*
X5471D1*
X6824D2*
X9619D1*
X10067D2*
X17890D1*
X19145D2*
X20731D1*
X4133Y18768D2*
X5455D1*
X6840D2*
X9590D1*
X10096D2*
X17862D1*
X19172D2*
X20731D1*
X4133Y18709D2*
X5444D1*
X6850D2*
X9576D1*
X10110D2*
X17841D1*
X19193D2*
X20731D1*
X4133Y18650D2*
X5440D1*
X6855D2*
X9577D1*
X10109D2*
X12167D1*
X12338D2*
X17825D1*
X19209D2*
X20731D1*
X4133Y18592D2*
X5439D1*
X6856D2*
X9590D1*
X10096D2*
X12067D1*
X12438D2*
X17815D1*
X19220D2*
X20731D1*
X4133Y18533D2*
X5443D1*
X6851D2*
X9620D1*
X10066D2*
X12021D1*
X12485D2*
X17809D1*
X19225D2*
X20731D1*
X4133Y18474D2*
X5454D1*
X6841D2*
X9674D1*
X10012D2*
X11995D1*
X12510D2*
X17809D1*
X19225D2*
X20731D1*
X4133Y18416D2*
X5469D1*
X6826D2*
X9674D1*
X10012D2*
X11985D1*
X12520D2*
X17813D1*
X19221D2*
X20731D1*
X4133Y18357D2*
X5488D1*
X6806D2*
X9674D1*
X10012D2*
X11974D1*
X12518D2*
X17822D1*
X19211D2*
X20731D1*
X4133Y18298D2*
X5516D1*
X6779D2*
X9674D1*
X10012D2*
X11915D1*
X12501D2*
X17837D1*
X19197D2*
X20731D1*
X4133Y18240D2*
X5549D1*
X6745D2*
X9674D1*
X10012D2*
X11857D1*
X12466D2*
X17858D1*
X19177D2*
X20731D1*
X4133Y18181D2*
X5591D1*
X6704D2*
X9674D1*
X10012D2*
X11798D1*
X12402D2*
X17884D1*
X19150D2*
X20731D1*
X4133Y18122D2*
X5643D1*
X6652D2*
X9674D1*
X10012D2*
X11739D1*
X12210D2*
X17917D1*
X19117D2*
X20731D1*
X4133Y18064D2*
X5710D1*
X6585D2*
X9674D1*
X10012D2*
X11681D1*
X12151D2*
X17959D1*
X19075D2*
X20731D1*
X4133Y18005D2*
X5798D1*
X6497D2*
X9674D1*
X10012D2*
X11621D1*
X12093D2*
X18011D1*
X19024D2*
X20731D1*
X4133Y17946D2*
X5935D1*
X6360D2*
X9674D1*
X10012D2*
X11563D1*
X12034D2*
X18076D1*
X18958D2*
X20731D1*
X4133Y17887D2*
X9674D1*
X10012D2*
X11504D1*
X11975D2*
X18162D1*
X18871D2*
X20731D1*
X4133Y17829D2*
X9674D1*
X10012D2*
X11445D1*
X11917D2*
X18296D1*
X18738D2*
X20731D1*
X4133Y17770D2*
X9674D1*
X10012D2*
X11406D1*
X11858D2*
X20731D1*
X6893Y17711D2*
X9674D1*
X10012D2*
X11395D1*
X11799D2*
X20731D1*
X6893Y17653D2*
X9674D1*
X10012D2*
X11395D1*
X11740D2*
X20731D1*
X6893Y17594D2*
X9674D1*
X10012D2*
X11395D1*
X11731D2*
X17751D1*
X6883Y17535D2*
X9674D1*
X10012D2*
X11395D1*
X11731D2*
X17751D1*
X4133Y17477D2*
X9674D1*
X10012D2*
X11395D1*
X11731D2*
X17751D1*
X4133Y17418D2*
X9674D1*
X10012D2*
X11395D1*
X11731D2*
X17751D1*
X4133Y17359D2*
X9674D1*
X10012D2*
X11395D1*
X11731D2*
X17751D1*
X4133Y17301D2*
X5876D1*
X6418D2*
X9674D1*
X10012D2*
X11395D1*
X11731D2*
X20741D1*
X4133Y17242D2*
X5763D1*
X6532D2*
X9674D1*
X10012D2*
X11395D1*
X11731D2*
X20741D1*
X4133Y17183D2*
X5684D1*
X6610D2*
X9674D1*
X10012D2*
X11395D1*
X11731D2*
X18254D1*
X18780D2*
X20741D1*
X4133Y17125D2*
X5623D1*
X6671D2*
X9674D1*
X10012D2*
X11395D1*
X11731D2*
X18138D1*
X18896D2*
X20741D1*
X4133Y17066D2*
X5576D1*
X6720D2*
X9674D1*
X10012D2*
X11395D1*
X11731D2*
X18057D1*
X18977D2*
X20741D1*
X4133Y17007D2*
X5536D1*
X6758D2*
X9674D1*
X10012D2*
X11395D1*
X11731D2*
X17996D1*
X19038D2*
X20741D1*
X4133Y16948D2*
X5505D1*
X6789D2*
X9674D1*
X10012D2*
X11395D1*
X11731D2*
X17947D1*
X19087D2*
X20741D1*
X4133Y16890D2*
X5481D1*
X6814D2*
X9674D1*
X10012D2*
X11369D1*
X11756D2*
X12076D1*
X12380D2*
X14141D1*
X14445D2*
X17907D1*
X19126D2*
X20741D1*
X4133Y16831D2*
X5462D1*
X6833D2*
X9674D1*
X10012D2*
X11326D1*
X11799D2*
X12013D1*
X14507D2*
X17876D1*
X19158D2*
X20741D1*
X4133Y16772D2*
X5449D1*
X7902D2*
X9674D1*
X10012D2*
X11303D1*
X11823D2*
X11980D1*
X14541D2*
X14651D1*
X14963D2*
X17851D1*
X19182D2*
X20741D1*
X4133Y16714D2*
X5441D1*
X8093D2*
X9674D1*
X10012D2*
X11294D1*
X11831D2*
X11963D1*
X14558D2*
X14590D1*
X15023D2*
X17832D1*
X19201D2*
X20741D1*
X4133Y16655D2*
X5439D1*
X8159D2*
X9631D1*
X10055D2*
X11300D1*
X11826D2*
X11960D1*
X15056D2*
X17819D1*
X19214D2*
X20741D1*
X4133Y16596D2*
X5441D1*
X8194D2*
X9596D1*
X10089D2*
X11319D1*
X11807D2*
X11971D1*
X15072D2*
X17812D1*
X19223D2*
X20741D1*
X4133Y16538D2*
X5447D1*
X8212D2*
X9579D1*
X10107D2*
X11356D1*
X11769D2*
X11996D1*
X15074D2*
X17808D1*
X19225D2*
X20741D1*
X4133Y16479D2*
X5459D1*
X6835D2*
X7679D1*
X8215D2*
X9575D1*
X10111D2*
X11395D1*
X11731D2*
X12044D1*
X12412D2*
X14110D1*
X14476D2*
X14550D1*
X15064D2*
X17810D1*
X19224D2*
X20741D1*
X4133Y16420D2*
X5477D1*
X6818D2*
X7689D1*
X8206D2*
X9584D1*
X10102D2*
X11395D1*
X11731D2*
X12059D1*
X12397D2*
X14213D1*
X14372D2*
X14577D1*
X15037D2*
X17816D1*
X19217D2*
X20741D1*
X4133Y16362D2*
X5501D1*
X6794D2*
X7714D1*
X8181D2*
X9610D1*
X10076D2*
X11395D1*
X11731D2*
X12059D1*
X12397D2*
X14626D1*
X14988D2*
X17829D1*
X19206D2*
X20741D1*
X4133Y16303D2*
X5530D1*
X6765D2*
X7760D1*
X8135D2*
X9656D1*
X10030D2*
X11395D1*
X11731D2*
X12059D1*
X12397D2*
X14638D1*
X14976D2*
X17846D1*
X19189D2*
X20741D1*
X4133Y16244D2*
X5567D1*
X6728D2*
X7856D1*
X8039D2*
X9674D1*
X10012D2*
X11395D1*
X11731D2*
X12059D1*
X12397D2*
X14638D1*
X14976D2*
X17868D1*
X19165D2*
X20741D1*
X4133Y16186D2*
X5613D1*
X6682D2*
X9674D1*
X10012D2*
X11395D1*
X11731D2*
X12059D1*
X12397D2*
X14638D1*
X14976D2*
X17898D1*
X19136D2*
X20741D1*
X4133Y16127D2*
X5671D1*
X6623D2*
X9674D1*
X10012D2*
X11395D1*
X11731D2*
X12059D1*
X12397D2*
X14638D1*
X14976D2*
X17935D1*
X19100D2*
X20741D1*
X4133Y16068D2*
X5746D1*
X6548D2*
X9674D1*
X10012D2*
X11395D1*
X11731D2*
X12059D1*
X12397D2*
X14638D1*
X14976D2*
X17981D1*
X19054D2*
X20741D1*
X4133Y16009D2*
X5851D1*
X6443D2*
X9674D1*
X10012D2*
X11395D1*
X11731D2*
X12059D1*
X12397D2*
X14638D1*
X14976D2*
X18038D1*
X18997D2*
X20741D1*
X4133Y15951D2*
X6066D1*
X6229D2*
X9674D1*
X10012D2*
X11395D1*
X11731D2*
X12059D1*
X12397D2*
X14638D1*
X14976D2*
X18112D1*
X18923D2*
X20741D1*
X4133Y15892D2*
X9674D1*
X10012D2*
X11395D1*
X11731D2*
X12059D1*
X12397D2*
X14638D1*
X14976D2*
X18214D1*
X18820D2*
X20741D1*
X4133Y15833D2*
X9674D1*
X10012D2*
X11358D1*
X11768D2*
X12059D1*
X12397D2*
X14638D1*
X14976D2*
X18411D1*
X18623D2*
X20741D1*
X4133Y15775D2*
X9674D1*
X10012D2*
X11320D1*
X11806D2*
X12059D1*
X12397D2*
X14638D1*
X14976D2*
X20741D1*
X4133Y15716D2*
X9674D1*
X10012D2*
X11300D1*
X11826D2*
X12059D1*
X12397D2*
X14638D1*
X14976D2*
X20741D1*
X4133Y15657D2*
X9674D1*
X10279D2*
X11294D1*
X11831D2*
X12059D1*
X12397D2*
X14638D1*
X14976D2*
X20741D1*
X4133Y15599D2*
X9674D1*
X10340D2*
X11303D1*
X11824D2*
X12059D1*
X12397D2*
X14638D1*
X14976D2*
X20741D1*
X4133Y15540D2*
X9674D1*
X10373D2*
X11324D1*
X11801D2*
X12059D1*
X12397D2*
X14638D1*
X14976D2*
X20741D1*
X4133Y15481D2*
X9674D1*
X10388D2*
X11366D1*
X11759D2*
X12059D1*
X12397D2*
X14638D1*
X14976D2*
X20741D1*
X4133Y15423D2*
X9674D1*
X10390D2*
X11450D1*
X11676D2*
X12059D1*
X12397D2*
X14638D1*
X14976D2*
X20741D1*
X4133Y15364D2*
X5975D1*
X6320D2*
X9674D1*
X10379D2*
X11389D1*
X11737D2*
X12059D1*
X12397D2*
X14638D1*
X14976D2*
X20741D1*
X4133Y15305D2*
X5818D1*
X6476D2*
X9674D1*
X10353D2*
X10430D1*
X11788D2*
X12059D1*
X12397D2*
X14638D1*
X14976D2*
X20741D1*
X4133Y15247D2*
X5724D1*
X6571D2*
X9674D1*
X10304D2*
X10361D1*
X11817D2*
X12059D1*
X12397D2*
X14638D1*
X14976D2*
X18358D1*
X18676D2*
X20741D1*
X4133Y15188D2*
X5654D1*
X6640D2*
X9674D1*
X10193D2*
X10302D1*
X11829D2*
X12059D1*
X12397D2*
X14638D1*
X14976D2*
X18194D1*
X18840D2*
X20741D1*
X4133Y15129D2*
X5600D1*
X6695D2*
X9674D1*
X10192D2*
X10243D1*
X11829D2*
X12059D1*
X12397D2*
X14638D1*
X14976D2*
X18098D1*
X18936D2*
X20741D1*
X4133Y15070D2*
X5556D1*
X6739D2*
X9674D1*
X11814D2*
X12059D1*
X12397D2*
X14638D1*
X14976D2*
X18027D1*
X19007D2*
X20741D1*
X4133Y15012D2*
X5521D1*
X6773D2*
X9674D1*
X11783D2*
X12057D1*
X12397D2*
X14638D1*
X14976D2*
X17972D1*
X19062D2*
X20741D1*
X4133Y14953D2*
X5493D1*
X6802D2*
X9674D1*
X10538D2*
X11398D1*
X11727D2*
X11998D1*
X12397D2*
X14638D1*
X14976D2*
X17928D1*
X19106D2*
X20741D1*
X4133Y14894D2*
X5471D1*
X6823D2*
X9674D1*
X10480D2*
X11816D1*
X12387D2*
X14638D1*
X14976D2*
X17892D1*
X19141D2*
X20741D1*
X4133Y14836D2*
X5456D1*
X6839D2*
X9674D1*
X10496D2*
X11741D1*
X12352D2*
X14152D1*
X14433D2*
X14638D1*
X14976D2*
X17864D1*
X19170D2*
X20741D1*
X4133Y14777D2*
X5445D1*
X6849D2*
X9674D1*
X10539D2*
X11701D1*
X12293D2*
X14084D1*
X14501D2*
X14638D1*
X14976D2*
X17843D1*
X19192D2*
X20741D1*
X4133Y14718D2*
X5440D1*
X6855D2*
X9674D1*
X10563D2*
X11681D1*
X12234D2*
X14048D1*
X14538D2*
X14638D1*
X14977D2*
X17826D1*
X19208D2*
X20741D1*
X4133Y14660D2*
X5439D1*
X6856D2*
X9674D1*
X10571D2*
X11675D1*
X12211D2*
X14029D1*
X14557D2*
X14639D1*
X14985D2*
X17816D1*
X19219D2*
X20741D1*
X4133Y14601D2*
X5443D1*
X6851D2*
X9674D1*
X10567D2*
X11681D1*
X12203D2*
X14024D1*
X14560D2*
X14649D1*
X14985D2*
X17809D1*
X19224D2*
X20741D1*
X4133Y14542D2*
X5453D1*
X6842D2*
X9674D1*
X10547D2*
X11703D1*
X12182D2*
X13989D1*
X14552D2*
X14649D1*
X14985D2*
X17808D1*
X19225D2*
X20741D1*
X4133Y14484D2*
X5467D1*
X6828D2*
X9674D1*
X10510D2*
X11744D1*
X12141D2*
X13931D1*
X14528D2*
X14649D1*
X14985D2*
X17813D1*
X19222D2*
X20741D1*
X4133Y14425D2*
X5486D1*
X6808D2*
X9674D1*
X10440D2*
X11825D1*
X12061D2*
X13871D1*
X14484D2*
X14649D1*
X14985D2*
X17821D1*
X19212D2*
X20741D1*
X4133Y14366D2*
X5513D1*
X6782D2*
X9674D1*
X10253D2*
X13813D1*
X14394D2*
X14649D1*
X14985D2*
X17835D1*
X19198D2*
X20741D1*
X4133Y14308D2*
X5546D1*
X6749D2*
X9674D1*
X14225D2*
X14649D1*
X14985D2*
X17855D1*
X19178D2*
X20741D1*
X4133Y14249D2*
X5587D1*
X6708D2*
X9674D1*
X14167D2*
X14593D1*
X14985D2*
X17881D1*
X19153D2*
X20741D1*
X4133Y14190D2*
X5638D1*
X6656D2*
X9674D1*
X14108D2*
X14534D1*
X14985D2*
X17914D1*
X19120D2*
X20741D1*
X4133Y14131D2*
X5703D1*
X6592D2*
X9674D1*
X14049D2*
X14476D1*
X14976D2*
X17954D1*
X19080D2*
X20741D1*
X4133Y14073D2*
X5789D1*
X6505D2*
X9674D1*
X10012D2*
X10075D1*
X13990D2*
X14417D1*
X14938D2*
X18005D1*
X19029D2*
X20741D1*
X4133Y14014D2*
X5920D1*
X6375D2*
X9674D1*
X10012D2*
X10061D1*
X12436D2*
X14359D1*
X14829D2*
X18069D1*
X18965D2*
X20741D1*
X4133Y13955D2*
X9674D1*
X12471D2*
X14300D1*
X14771D2*
X18154D1*
X18880D2*
X20741D1*
X4133Y13897D2*
X9674D1*
X12488D2*
X14241D1*
X14712D2*
X18281D1*
X18754D2*
X20741D1*
X4133Y13838D2*
X9674D1*
X10012D2*
X10042D1*
X12490D2*
X14183D1*
X14653D2*
X20741D1*
X6853Y13779D2*
X9674D1*
X10012D2*
X10064D1*
X12480D2*
X14124D1*
X14595D2*
X20741D1*
X6853Y13721D2*
X9674D1*
X10012D2*
X10106D1*
X12455D2*
X14066D1*
X14536D2*
X20741D1*
X6853Y13662D2*
X9674D1*
X10012D2*
X10138D1*
X12408D2*
X14006D1*
X14478D2*
X20741D1*
X6841Y13603D2*
X9674D1*
X10012D2*
X10138D1*
X14419D2*
X20741D1*
X4133Y13545D2*
X9674D1*
X10012D2*
X10138D1*
X14360D2*
X20741D1*
X4133Y13486D2*
X9674D1*
X10012D2*
X10138D1*
X14302D2*
X20741D1*
X4133Y13427D2*
X9674D1*
X10012D2*
X10138D1*
X14243D2*
X20741D1*
X4133Y13369D2*
X5890D1*
X6405D2*
X9674D1*
X10012D2*
X10138D1*
X14184D2*
X20741D1*
X4133Y13310D2*
X5771D1*
X6524D2*
X9674D1*
X10012D2*
X10138D1*
X14120D2*
X14295D1*
X15448D2*
X20741D1*
X4133Y13251D2*
X5690D1*
X6605D2*
X9674D1*
X10012D2*
X10138D1*
X11056D2*
X14270D1*
X15474D2*
X20741D1*
X4133Y13192D2*
X5628D1*
X6667D2*
X9674D1*
X10012D2*
X10138D1*
X11032D2*
X14268D1*
X15475D2*
X20741D1*
X4133Y13134D2*
X5578D1*
X6716D2*
X9674D1*
X10012D2*
X10138D1*
X11032D2*
X14267D1*
X15475D2*
X20741D1*
X4133Y13075D2*
X5539D1*
X6756D2*
X9674D1*
X10012D2*
X10138D1*
X4133Y13016D2*
X5508D1*
X6787D2*
X9674D1*
X10012D2*
X10138D1*
X4133Y12958D2*
X5483D1*
X6812D2*
X9674D1*
X10012D2*
X10138D1*
X4133Y12899D2*
X5464D1*
X6831D2*
X9674D1*
X10012D2*
X10138D1*
X4133Y12840D2*
X5450D1*
X6845D2*
X9674D1*
X10012D2*
X10138D1*
X4133Y12782D2*
X5441D1*
X6853D2*
X9674D1*
X10012D2*
X10138D1*
X4133Y12723D2*
X5439D1*
X6856D2*
X9674D1*
X10012D2*
X10138D1*
X4133Y12664D2*
X5441D1*
X6854D2*
X9674D1*
X10012D2*
X10138D1*
X4133Y12606D2*
X5447D1*
X6848D2*
X9674D1*
X10012D2*
X10138D1*
X4133Y12547D2*
X5458D1*
X6836D2*
X9674D1*
X10012D2*
X10138D1*
X4133Y12488D2*
X5475D1*
X6819D2*
X9674D1*
X10012D2*
X10138D1*
X4133Y12430D2*
X5498D1*
X6797D2*
X9674D1*
X10012D2*
X10138D1*
X10476D2*
X10595D1*
X4133Y12371D2*
X5527D1*
X6768D2*
X9674D1*
X10012D2*
X10138D1*
X10476D2*
X10600D1*
X4133Y12312D2*
X5563D1*
X6731D2*
X9674D1*
X10012D2*
X10138D1*
X10476D2*
X10619D1*
X4133Y12253D2*
X5609D1*
X6685D2*
X9674D1*
X10012D2*
X10138D1*
X10476D2*
X10656D1*
X4133Y12195D2*
X5666D1*
X6629D2*
X9674D1*
X10013D2*
X10138D1*
X10476D2*
X10726D1*
X4133Y12136D2*
X5740D1*
X6555D2*
X9626D1*
X10069D2*
X10138D1*
X10476D2*
X11027D1*
X4133Y12077D2*
X5840D1*
X6455D2*
X9595D1*
X10099D2*
X10138D1*
X10476D2*
X11027D1*
X4133Y12019D2*
X6029D1*
X6265D2*
X9581D1*
X10476D2*
X11026D1*
X4133Y11960D2*
X9581D1*
X10476D2*
X11026D1*
X4133Y11901D2*
X9593D1*
X10101D2*
X10138D1*
X10476D2*
X11025D1*
X4133Y11843D2*
X9622D1*
X10072D2*
X10138D1*
X10476D2*
X11025D1*
X4133Y11784D2*
X9675D1*
X10019D2*
X10138D1*
X10476D2*
X11024D1*
X4133Y11725D2*
X9824D1*
X9869D2*
X10138D1*
X10476D2*
X11024D1*
X4133Y11667D2*
X10138D1*
X10476D2*
X11023D1*
X4133Y11608D2*
X10121D1*
X10493D2*
X11023D1*
X4133Y11549D2*
X10075D1*
X10539D2*
X11022D1*
X4133Y11491D2*
X10049D1*
X10565D2*
X11022D1*
X4133Y11432D2*
X5997D1*
X6297D2*
X10039D1*
X10575D2*
X11021D1*
X4133Y11373D2*
X5828D1*
X6467D2*
X10043D1*
X10571D2*
X11021D1*
X4133Y11314D2*
X5731D1*
X6563D2*
X10060D1*
X10554D2*
X11021D1*
X4133Y11256D2*
X5660D1*
X6635D2*
X10094D1*
X10520D2*
X11020D1*
X4133Y11197D2*
X5604D1*
X6691D2*
X10158D1*
X10456D2*
X11020D1*
X4133Y11138D2*
X5560D1*
X6735D2*
X11019D1*
X4133Y11080D2*
X5524D1*
X6771D2*
X11019D1*
X4133Y11021D2*
X5496D1*
X6800D2*
X11018D1*
X4133Y10962D2*
X5473D1*
X6821D2*
X11018D1*
X4133Y10904D2*
X5456D1*
X6838D2*
X11017D1*
X4133Y10845D2*
X5446D1*
X6848D2*
X11017D1*
X4133Y10786D2*
X5440D1*
X6855D2*
X11016D1*
X4133Y10728D2*
X5439D1*
X6856D2*
X11016D1*
X4133Y10669D2*
X5442D1*
X6852D2*
X11015D1*
X4133Y10610D2*
X5452D1*
X6843D2*
X11015D1*
X4133Y10552D2*
X5466D1*
X6830D2*
X11014D1*
X4133Y10493D2*
X5485D1*
X6810D2*
X10794D1*
X4133Y10434D2*
X5511D1*
X6784D2*
X10729D1*
X4133Y10375D2*
X5543D1*
X6752D2*
X10719D1*
X4133Y10317D2*
X5583D1*
X6712D2*
X10719D1*
X4133Y10258D2*
X5634D1*
X6661D2*
X10719D1*
X4133Y10199D2*
X5697D1*
X6597D2*
X10719D1*
X4133Y10141D2*
X5781D1*
X6514D2*
X10719D1*
X4133Y10082D2*
X5906D1*
X6389D2*
X10719D1*
X4133Y10023D2*
X10719D1*
X4133Y9965D2*
X10719D1*
X4133Y9906D2*
X10719D1*
X4133Y9847D2*
X10719D1*
X4133Y9789D2*
X10719D1*
X4133Y9730D2*
X10719D1*
X4133Y9671D2*
X10719D1*
X4133Y9613D2*
X10719D1*
X4133Y9554D2*
X10719D1*
X4133Y9495D2*
X10719D1*
X4133Y9436D2*
X10721D1*
X4133Y9378D2*
X10751D1*
X4133Y9319D2*
X11799D1*
X4133Y9260D2*
X11799D1*
X4133Y9202D2*
X11799D1*
X4133Y9143D2*
X11799D1*
X4133Y9084D2*
X11799D1*
X4133Y9026D2*
X11799D1*
X4133Y8967D2*
X11799D1*
X4133Y8908D2*
X11799D1*
X4133Y8850D2*
X11799D1*
X4133Y8791D2*
X7915D1*
X8273D2*
X9004D1*
X9363D2*
X10082D1*
X10441D2*
X11160D1*
X11519D2*
X11799D1*
X4133Y8732D2*
X7811D1*
X8377D2*
X8900D1*
X9467D2*
X9978D1*
X10545D2*
X11056D1*
X11623D2*
X11799D1*
X4133Y8674D2*
X7746D1*
X8441D2*
X8835D1*
X9531D2*
X9913D1*
X10610D2*
X10991D1*
X11688D2*
X11799D1*
X4133Y8615D2*
X7700D1*
X8486D2*
X8790D1*
X9577D2*
X9868D1*
X10655D2*
X10946D1*
X11733D2*
X11799D1*
X4133Y8556D2*
X5185D1*
X5498D2*
X7668D1*
X8519D2*
X8757D1*
X9608D2*
X9836D1*
X10688D2*
X10914D1*
X11766D2*
X11799D1*
X4133Y8497D2*
X5007D1*
X5676D2*
X7646D1*
X8542D2*
X8735D1*
X9631D2*
X9813D1*
X10709D2*
X10891D1*
X4133Y8439D2*
X4904D1*
X5779D2*
X7631D1*
X8556D2*
X8722D1*
X9645D2*
X9800D1*
X10723D2*
X10878D1*
X4133Y8380D2*
X4828D1*
X5855D2*
X7626D1*
X8561D2*
X8715D1*
X9652D2*
X9793D1*
X10730D2*
X10871D1*
X4133Y8321D2*
X4768D1*
X5915D2*
X7627D1*
X8559D2*
X8717D1*
X9650D2*
X9795D1*
X10728D2*
X10873D1*
X4133Y8263D2*
X4720D1*
X5963D2*
X7636D1*
X8551D2*
X8726D1*
X9640D2*
X9804D1*
X10718D2*
X10883D1*
X4133Y8204D2*
X4680D1*
X6003D2*
X7653D1*
X8534D2*
X8743D1*
X9623D2*
X9821D1*
X10702D2*
X10900D1*
X4133Y8145D2*
X4647D1*
X6036D2*
X7679D1*
X8508D2*
X8769D1*
X9597D2*
X9848D1*
X10675D2*
X10926D1*
X11753D2*
X11798D1*
X4133Y8087D2*
X4621D1*
X6062D2*
X7716D1*
X8470D2*
X8806D1*
X9561D2*
X9884D1*
X10639D2*
X10962D1*
X11717D2*
X11799D1*
X4133Y8028D2*
X4601D1*
X6083D2*
X7768D1*
X8419D2*
X8858D1*
X9508D2*
X9936D1*
X10586D2*
X11015D1*
X11665D2*
X11799D1*
X4133Y7969D2*
X4585D1*
X6098D2*
X7843D1*
X8343D2*
X8934D1*
X9432D2*
X10012D1*
X10510D2*
X11090D1*
X11589D2*
X11799D1*
X4133Y7911D2*
X4574D1*
X6109D2*
X7989D1*
X8198D2*
X9079D1*
X9287D2*
X10157D1*
X10366D2*
X11235D1*
X11444D2*
X11799D1*
X4133Y7852D2*
X4569D1*
X6114D2*
X11699D1*
X4133Y7793D2*
X4567D1*
X6116D2*
X11574D1*
X4133Y7735D2*
X4570D1*
X6113D2*
X11501D1*
X4133Y7676D2*
X4577D1*
X6106D2*
X8549D1*
X8737D2*
X9627D1*
X9816D2*
X10706D1*
X10894D2*
X11442D1*
X4133Y7617D2*
X4589D1*
X6094D2*
X8402D1*
X8884D2*
X9480D1*
X9962D2*
X10558D1*
X11040D2*
X11383D1*
X4133Y7558D2*
X4606D1*
X6077D2*
X8328D1*
X8959D2*
X9406D1*
X10037D2*
X10484D1*
X11115D2*
X11345D1*
X4133Y7500D2*
X4629D1*
X6054D2*
X8277D1*
X9008D2*
X9356D1*
X10088D2*
X10434D1*
X11166D2*
X11321D1*
X4133Y7441D2*
X4657D1*
X6026D2*
X8242D1*
X9044D2*
X9320D1*
X10122D2*
X10399D1*
X11200D2*
X11299D1*
X4133Y7382D2*
X4691D1*
X5992D2*
X8217D1*
X9068D2*
X9296D1*
X10147D2*
X10374D1*
X11225D2*
X11276D1*
X4133Y7324D2*
X4734D1*
X5949D2*
X8202D1*
X9083D2*
X9281D1*
X10163D2*
X10359D1*
X4133Y7265D2*
X4785D1*
X5897D2*
X8196D1*
X9091D2*
X9274D1*
X10169D2*
X10352D1*
X4133Y7206D2*
X4850D1*
X5833D2*
X8197D1*
X9090D2*
X9275D1*
X10168D2*
X10353D1*
X4133Y7148D2*
X4932D1*
X5751D2*
X8205D1*
X9082D2*
X9283D1*
X10160D2*
X10361D1*
X4133Y7089D2*
X5049D1*
X5633D2*
X8222D1*
X9064D2*
X9300D1*
X10142D2*
X10379D1*
X11220D2*
X11262D1*
X4133Y7030D2*
X8249D1*
X9038D2*
X9327D1*
X10116D2*
X10406D1*
X11194D2*
X11263D1*
X4133Y6972D2*
X8288D1*
X8999D2*
X9366D1*
X10077D2*
X10444D1*
X11155D2*
X11263D1*
X4133Y6913D2*
X8342D1*
X8944D2*
X9420D1*
X10023D2*
X10498D1*
X11101D2*
X11263D1*
X4133Y6854D2*
X8426D1*
X8861D2*
X9504D1*
X9939D2*
X10582D1*
X11018D2*
X11263D1*
X4133Y6796D2*
X11263D1*
X4133Y6737D2*
X11263D1*
X4133Y6678D2*
X11264D1*
X4133Y6619D2*
X11264D1*
X4133Y6561D2*
X11264D1*
X4133Y6502D2*
X11264D1*
X4133Y6443D2*
X11264D1*
X4133Y6385D2*
X11264D1*
X4133Y6326D2*
X11265D1*
X4133Y6267D2*
X11265D1*
X4133Y6209D2*
X11265D1*
X4133Y6150D2*
X11265D1*
X4133Y6091D2*
X11265D1*
X4133Y6033D2*
X11265D1*
X4133Y5974D2*
X11266D1*
X4133Y5915D2*
X11266D1*
X4133Y5857D2*
X11266D1*
X4133Y5798D2*
X11266D1*
X4133Y5739D2*
X11266D1*
X4133Y5680D2*
X11266D1*
X4133Y5622D2*
X11267D1*
X4133Y5563D2*
X11267D1*
X4133Y5504D2*
X11267D1*
X4133Y5446D2*
X11267D1*
X4133Y5387D2*
X11267D1*
X4133Y5328D2*
X11267D1*
X4133Y5270D2*
X11268D1*
X4133Y5211D2*
X11268D1*
X4133Y5152D2*
X11268D1*
X4133Y5094D2*
X11268D1*
X4133Y5035D2*
X11268D1*
X4133Y4976D2*
X11269D1*
X4133Y4918D2*
X11269D1*
X4133Y4859D2*
X11269D1*
X4133Y4800D2*
X11269D1*
X4133Y4741D2*
X11269D1*
X4133Y4683D2*
X11269D1*
X4133Y4624D2*
X11270D1*
X4133Y4565D2*
X11270D1*
X4133Y4507D2*
X11270D1*
X4133Y4448D2*
X11270D1*
X4133Y4389D2*
X11270D1*
X4133Y4331D2*
X11270D1*
X4133Y4272D2*
X11271D1*
X4133Y4213D2*
X11271D1*
X4133Y4155D2*
X11271D1*
X20204Y26697D2*
X20196Y26607D1*
X20180Y26519D1*
X20155Y26432D1*
X20122Y26349D1*
X20081Y26269D1*
X20032Y26193D1*
X19977Y26123D1*
X19914Y26058D1*
X19845Y26000D1*
X19772Y25948D1*
X19693Y25905D1*
X19610Y25869D1*
X19525Y25841D1*
X19437Y25822D1*
X19347Y25812D1*
X19257Y25810D1*
X19168Y25818D1*
X19079Y25834D1*
X18993Y25858D1*
X18909Y25891D1*
X18829Y25932D1*
X18753Y25981D1*
X18683Y26037D1*
X18618Y26099D1*
X18560Y26168D1*
X18509Y26242D1*
X18465Y26320D1*
X18429Y26403D1*
X18401Y26489D1*
X18382Y26576D1*
X18372Y26666D1*
X18370Y26756D1*
X18377Y26845D1*
X18393Y26934D1*
X18418Y27021D1*
X18451Y27104D1*
X18492Y27184D1*
X18540Y27260D1*
X18596Y27331D1*
X18659Y27395D1*
X18727Y27454D1*
X18801Y27505D1*
X18880Y27549D1*
X18962Y27585D1*
X19048Y27613D1*
X19136Y27632D1*
X19225Y27642D1*
X19315Y27644D1*
X19405Y27637D1*
X19493Y27621D1*
X19580Y27596D1*
X19663Y27563D1*
X19744Y27522D1*
X19819Y27474D1*
X19890Y27418D1*
X19955Y27356D1*
X20013Y27287D1*
X20064Y27213D1*
X20108Y27135D1*
X20144Y27052D1*
X20172Y26967D1*
X20191Y26879D1*
X20202Y26790D1*
X20204Y26727D1*
Y26697D1*
X9085Y7212D2*
X9076Y7153D1*
X9060Y7095D1*
X9037Y7040D1*
X9006Y6989D1*
X8968Y6942D1*
X8925Y6901D1*
X8876Y6866D1*
X8823Y6838D1*
X8766Y6817D1*
X8708Y6805D1*
X8648Y6800D1*
X8588Y6803D1*
X8529Y6815D1*
X8473Y6834D1*
X8419Y6861D1*
X8370Y6895D1*
X8325Y6935D1*
X8286Y6981D1*
X8254Y7031D1*
X8229Y7086D1*
X8212Y7143D1*
X8203Y7203D1*
X8201Y7263D1*
X8208Y7322D1*
X8223Y7380D1*
X8245Y7436D1*
X8275Y7488D1*
X8312Y7535D1*
X8354Y7577D1*
X8402Y7613D1*
X8455Y7643D1*
X8511Y7664D1*
X8569Y7678D1*
X8628Y7685D1*
X8688Y7682D1*
X8747Y7672D1*
X8805Y7654D1*
X8859Y7629D1*
X8909Y7596D1*
X8954Y7557D1*
X8994Y7512D1*
X9027Y7462D1*
X9053Y7408D1*
X9072Y7351D1*
X9083Y7292D1*
X9086Y7242D1*
X9085Y7212D1*
X10163D2*
X10155Y7153D1*
X10139Y7095D1*
X10115Y7040D1*
X10084Y6989D1*
X10046Y6942D1*
X10003Y6901D1*
X9954Y6866D1*
X9901Y6838D1*
X9845Y6817D1*
X9786Y6805D1*
X9726Y6800D1*
X9666Y6803D1*
X9608Y6815D1*
X9551Y6834D1*
X9497Y6861D1*
X9448Y6895D1*
X9403Y6935D1*
X9365Y6981D1*
X9333Y7031D1*
X9308Y7086D1*
X9290Y7143D1*
X9281Y7203D1*
X9279Y7263D1*
X9286Y7322D1*
X9301Y7380D1*
X9324Y7436D1*
X9353Y7488D1*
X9390Y7535D1*
X9433Y7577D1*
X9481Y7613D1*
X9533Y7643D1*
X9589Y7664D1*
X9647Y7678D1*
X9707Y7685D1*
X9767Y7682D1*
X9826Y7672D1*
X9883Y7654D1*
X9937Y7629D1*
X9987Y7596D1*
X10033Y7557D1*
X10072Y7512D1*
X10106Y7462D1*
X10132Y7408D1*
X10150Y7351D1*
X10161Y7292D1*
X10164Y7242D1*
X10163Y7212D1*
X11241D2*
X11233Y7153D1*
X11217Y7095D1*
X11193Y7040D1*
X11162Y6989D1*
X11125Y6942D1*
X11081Y6901D1*
X11032Y6866D1*
X10979Y6838D1*
X10923Y6817D1*
X10864Y6805D1*
X10805Y6800D1*
X10745Y6803D1*
X10686Y6815D1*
X10629Y6834D1*
X10575Y6861D1*
X10526Y6895D1*
X10481Y6935D1*
X10443Y6981D1*
X10411Y7031D1*
X10386Y7086D1*
X10368Y7143D1*
X10359Y7203D1*
X10358Y7263D1*
X10364Y7322D1*
X10379Y7380D1*
X10402Y7436D1*
X10432Y7488D1*
X10468Y7535D1*
X10511Y7577D1*
X10559Y7613D1*
X10611Y7643D1*
X10667Y7664D1*
X10725Y7678D1*
X10785Y7685D1*
X10845Y7682D1*
X10904Y7672D1*
X10961Y7654D1*
X11015Y7629D1*
X11066Y7596D1*
X11111Y7557D1*
X11151Y7512D1*
X11184Y7462D1*
X11210Y7408D1*
X11229Y7351D1*
X11239Y7292D1*
X11242Y7242D1*
X11241Y7212D1*
X8556Y8356D2*
X8552Y8302D1*
X8542Y8249D1*
X8526Y8198D1*
X8503Y8149D1*
X8476Y8102D1*
X8443Y8059D1*
X8405Y8021D1*
X8363Y7987D1*
X8318Y7958D1*
X8269Y7935D1*
X8218Y7917D1*
X8165Y7905D1*
X8112Y7900D1*
X8058Y7901D1*
X8004Y7908D1*
X7952Y7922D1*
X7902Y7941D1*
X7854Y7967D1*
X7809Y7997D1*
X7769Y8033D1*
X7733Y8073D1*
X7701Y8117D1*
X7676Y8164D1*
X7655Y8214D1*
X7641Y8266D1*
X7633Y8320D1*
X7631Y8374D1*
X7636Y8427D1*
X7646Y8480D1*
X7663Y8531D1*
X7686Y8580D1*
X7714Y8626D1*
X7747Y8669D1*
X7785Y8707D1*
X7828Y8741D1*
X7874Y8769D1*
X7922Y8792D1*
X7974Y8809D1*
X8027Y8820D1*
X8080Y8824D1*
X8134Y8823D1*
X8188Y8815D1*
X8240Y8801D1*
X8290Y8781D1*
X8337Y8755D1*
X8381Y8724D1*
X8422Y8688D1*
X8457Y8647D1*
X8488Y8603D1*
X8513Y8555D1*
X8533Y8505D1*
X8547Y8453D1*
X8554Y8399D1*
X8556Y8356D1*
X9645Y8332D2*
X9637Y8273D1*
X9622Y8215D1*
X9599Y8159D1*
X9569Y8107D1*
X9533Y8060D1*
X9491Y8017D1*
X9443Y7980D1*
X9392Y7950D1*
X9337Y7926D1*
X9279Y7910D1*
X9220Y7901D1*
X9160D1*
X9100Y7907D1*
X9042Y7922D1*
X8986Y7944D1*
X8934Y7973D1*
X8885Y8009D1*
X8842Y8050D1*
X8805Y8097D1*
X8773Y8148D1*
X8749Y8203D1*
X8732Y8260D1*
X8723Y8320D1*
X8721Y8380D1*
X8727Y8439D1*
X8741Y8498D1*
X8762Y8554D1*
X8791Y8607D1*
X8826Y8655D1*
X8866Y8699D1*
X8913Y8737D1*
X8963Y8769D1*
X9018Y8794D1*
X9075Y8812D1*
X9134Y8822D1*
X9194Y8825D1*
X9254Y8819D1*
X9312Y8806D1*
X9369Y8786D1*
X9422Y8758D1*
X9471Y8724D1*
X9516Y8684D1*
X9554Y8638D1*
X9587Y8588D1*
X9613Y8533D1*
X9631Y8476D1*
X9642Y8418D1*
X9646Y8362D1*
X9645Y8332D1*
X10723D2*
X10715Y8273D1*
X10700Y8215D1*
X10677Y8159D1*
X10647Y8107D1*
X10611Y8060D1*
X10569Y8017D1*
X10522Y7980D1*
X10470Y7950D1*
X10415Y7926D1*
X10357Y7910D1*
X10298Y7901D1*
X10238D1*
X10178Y7907D1*
X10120Y7922D1*
X10064Y7944D1*
X10012Y7973D1*
X9964Y8009D1*
X9920Y8050D1*
X9883Y8097D1*
X9852Y8148D1*
X9827Y8203D1*
X9810Y8260D1*
X9801Y8320D1*
X9799Y8380D1*
X9806Y8439D1*
X9819Y8498D1*
X9841Y8554D1*
X9869Y8607D1*
X9904Y8655D1*
X9945Y8699D1*
X9991Y8737D1*
X10042Y8769D1*
X10096Y8794D1*
X10153Y8812D1*
X10213Y8822D1*
X10272Y8825D1*
X10332Y8819D1*
X10391Y8806D1*
X10447Y8786D1*
X10500Y8758D1*
X10550Y8724D1*
X10594Y8684D1*
X10633Y8638D1*
X10665Y8588D1*
X10691Y8533D1*
X10710Y8476D1*
X10721Y8418D1*
X10724Y8362D1*
X10723Y8332D1*
X11801D2*
X11793Y8273D1*
X11778Y8215D1*
X11755Y8159D1*
X11725Y8107D1*
X11689Y8060D1*
X11647Y8017D1*
X11600Y7980D1*
X11548Y7950D1*
X11493Y7926D1*
X11435Y7910D1*
X11376Y7901D1*
X11316D1*
X11256Y7907D1*
X11198Y7922D1*
X11143Y7944D1*
X11090Y7973D1*
X11042Y8009D1*
X10999Y8050D1*
X10961Y8097D1*
X10930Y8148D1*
X10906Y8203D1*
X10889Y8260D1*
X10879Y8320D1*
X10878Y8380D1*
X10884Y8439D1*
X10898Y8498D1*
X10919Y8554D1*
X10947Y8607D1*
X10982Y8655D1*
X11023Y8699D1*
X11069Y8737D1*
X11120Y8769D1*
X11174Y8794D1*
X11232Y8812D1*
X11291Y8822D1*
X11351Y8825D1*
X11410Y8819D1*
X11469Y8806D1*
X11525Y8786D1*
X11579Y8758D1*
X11628Y8724D1*
X11672Y8684D1*
X11711Y8638D1*
X11743Y8588D1*
X11769Y8533D1*
X11788Y8476D1*
X11799Y8418D1*
X11802Y8362D1*
X11801Y8332D1*
X6110Y7772D2*
X6105Y7713D1*
X6096Y7653D1*
X6082Y7595D1*
X6063Y7538D1*
X6041Y7482D1*
X6013Y7429D1*
X5982Y7378D1*
X5947Y7329D1*
X5909Y7283D1*
X5866Y7241D1*
X5821Y7201D1*
X5773Y7166D1*
X5722Y7134D1*
X5668Y7106D1*
X5613Y7083D1*
X5556Y7064D1*
X5498Y7050D1*
X5439Y7040D1*
X5379Y7034D1*
X5319D1*
X5259Y7038D1*
X5200Y7047D1*
X5141Y7060D1*
X5084Y7078D1*
X5029Y7100D1*
X4975Y7126D1*
X4923Y7157D1*
X4874Y7192D1*
X4828Y7230D1*
X4785Y7272D1*
X4745Y7317D1*
X4709Y7365D1*
X4677Y7415D1*
X4649Y7468D1*
X4625Y7523D1*
X4605Y7580D1*
X4590Y7638D1*
X4580Y7697D1*
X4574Y7757D1*
X4573Y7817D1*
X4576Y7877D1*
X4584Y7936D1*
X4597Y7995D1*
X4614Y8052D1*
X4636Y8108D1*
X4662Y8162D1*
X4692Y8214D1*
X4726Y8263D1*
X4764Y8310D1*
X4805Y8353D1*
X4850Y8394D1*
X4897Y8430D1*
X4948Y8463D1*
X5000Y8491D1*
X5055Y8516D1*
X5112Y8536D1*
X5169Y8552D1*
X5228Y8563D1*
X5288Y8569D1*
X5348Y8571D1*
X5408Y8568D1*
X5467Y8561D1*
X5526Y8549D1*
X5584Y8532D1*
X5640Y8511D1*
X5694Y8486D1*
X5746Y8456D1*
X5796Y8422D1*
X5843Y8385D1*
X5887Y8344D1*
X5928Y8300D1*
X5965Y8253D1*
X5998Y8203D1*
X6027Y8150D1*
X6052Y8096D1*
X6073Y8040D1*
X6089Y7982D1*
X6101Y7923D1*
X6108Y7863D1*
X6110Y7802D1*
Y7772D1*
X6850Y12683D2*
X6845Y12623D1*
X6834Y12564D1*
X6819Y12506D1*
X6799Y12449D1*
X6774Y12394D1*
X6745Y12342D1*
X6711Y12293D1*
X6673Y12246D1*
X6632Y12203D1*
X6586Y12164D1*
X6538Y12128D1*
X6487Y12097D1*
X6433Y12070D1*
X6377Y12048D1*
X6320Y12031D1*
X6261Y12019D1*
X6201Y12012D1*
X6142Y12010D1*
X6082Y12013D1*
X6022Y12021D1*
X5964Y12034D1*
X5907Y12052D1*
X5851Y12075D1*
X5798Y12103D1*
X5747Y12135D1*
X5699Y12171D1*
X5655Y12211D1*
X5614Y12255D1*
X5577Y12302D1*
X5544Y12352D1*
X5515Y12405D1*
X5491Y12460D1*
X5472Y12517D1*
X5458Y12575D1*
X5449Y12634D1*
X5445Y12694D1*
X5446Y12754D1*
X5452Y12814D1*
X5463Y12873D1*
X5479Y12930D1*
X5500Y12987D1*
X5526Y13041D1*
X5556Y13093D1*
X5591Y13142D1*
X5629Y13188D1*
X5672Y13230D1*
X5717Y13269D1*
X5766Y13303D1*
X5818Y13334D1*
X5872Y13359D1*
X5928Y13381D1*
X5986Y13397D1*
X6045Y13408D1*
X6105Y13414D1*
X6165Y13415D1*
X6225Y13411D1*
X6284Y13402D1*
X6342Y13388D1*
X6399Y13369D1*
X6454Y13345D1*
X6507Y13317D1*
X6557Y13284D1*
X6604Y13247D1*
X6648Y13206D1*
X6688Y13161D1*
X6725Y13114D1*
X6757Y13063D1*
X6784Y13010D1*
X6807Y12954D1*
X6826Y12897D1*
X6839Y12839D1*
X6847Y12779D1*
X6850Y12712D1*
Y12683D1*
Y10738D2*
X6847Y10672D1*
X6837Y10607D1*
X6821Y10543D1*
X6799Y10481D1*
X6772Y10421D1*
X6738Y10364D1*
X6700Y10310D1*
X6657Y10260D1*
X6609Y10214D1*
X6558Y10173D1*
X6502Y10137D1*
X6444Y10107D1*
X6383Y10082D1*
X6320Y10063D1*
X6255Y10049D1*
X6190Y10042D1*
X6124Y10041D1*
X6058Y10047D1*
X5993Y10058D1*
X5929Y10076D1*
X5868Y10099D1*
X5808Y10128D1*
X5752Y10163D1*
X5699Y10202D1*
X5651Y10247D1*
X5606Y10296D1*
X5566Y10348D1*
X5532Y10404D1*
X5503Y10464D1*
X5479Y10525D1*
X5462Y10589D1*
X5450Y10654D1*
X5445Y10720D1*
X5446Y10786D1*
X5453Y10851D1*
X5466Y10916D1*
X5485Y10979D1*
X5510Y11040D1*
X5540Y11099D1*
X5576Y11154D1*
X5617Y11206D1*
X5663Y11253D1*
X5713Y11296D1*
X5766Y11335D1*
X5823Y11368D1*
X5883Y11396D1*
X5946Y11417D1*
X6010Y11433D1*
X6075Y11443D1*
X6141Y11447D1*
X6207Y11444D1*
X6272Y11436D1*
X6336Y11421D1*
X6399Y11400D1*
X6459Y11374D1*
X6517Y11342D1*
X6572Y11305D1*
X6622Y11262D1*
X6669Y11215D1*
X6711Y11165D1*
X6748Y11110D1*
X6779Y11052D1*
X6805Y10991D1*
X6826Y10929D1*
X6840Y10864D1*
X6848Y10799D1*
X6850Y10738D1*
X6831Y20424D2*
X6810Y20351D1*
X6787Y20296D1*
X6760Y20242D1*
X6729Y20191D1*
X6693Y20143D1*
X6653Y20098D1*
X6609Y20057D1*
X6563Y20019D1*
X6513Y19986D1*
X6460Y19957D1*
X6405Y19933D1*
X6349Y19913D1*
X6291Y19898D1*
X6231Y19889D1*
X6172Y19884D1*
X6112D1*
X6052Y19890D1*
X5993Y19901D1*
X5935Y19916D1*
X5879Y19937D1*
X5824Y19962D1*
X5772Y19992D1*
X5723Y20026D1*
X5677Y20064D1*
X5634Y20106D1*
X5595Y20152D1*
X5560Y20201D1*
X5529Y20252D1*
X5503Y20306D1*
X5481Y20362D1*
X5464Y20420D1*
X5453Y20479D1*
X5446Y20538D1*
X5444Y20598D1*
X5448Y20658D1*
X5457Y20717D1*
X5470Y20776D1*
X5489Y20833D1*
X5512Y20888D1*
X5540Y20941D1*
X5573Y20992D1*
X5609Y21039D1*
X5650Y21083D1*
X5694Y21124D1*
X5742Y21161D1*
X5792Y21193D1*
X5845Y21221D1*
X5900Y21245D1*
X5957Y21263D1*
X6016Y21277D1*
X6075Y21286D1*
X6135Y21289D1*
X6195Y21288D1*
X6254Y21281D1*
X6313Y21270D1*
X6371Y21253D1*
X6427Y21232D1*
X6481Y21205D1*
X6532Y21175D1*
X6581Y21140D1*
X6627Y21101D1*
X6669Y21058D1*
X6707Y21012D1*
X6741Y20963D1*
X6771Y20911D1*
X6797Y20856D1*
X6817Y20800D1*
X6831Y20748D1*
X7137Y20749D1*
X12002D1*
X12037Y20785D1*
X12061Y20804D1*
X12087Y20819D1*
X12114Y20831D1*
X12143Y20841D1*
X12172Y20846D1*
X12202Y20849D1*
X12232Y20848D1*
X12262Y20843D1*
X12291Y20836D1*
X12319Y20825D1*
X12345Y20811D1*
X12370Y20794D1*
X12392Y20774D1*
X12412Y20752D1*
X12430Y20727D1*
X12445Y20701D1*
X12456Y20674D1*
X12464Y20645D1*
X12469Y20615D1*
X12471Y20586D1*
X12469Y20557D1*
X12464Y20527D1*
X12456Y20498D1*
X12438Y20460D1*
X12645Y20459D1*
X12668Y20482D1*
X12692Y20501D1*
X12718Y20516D1*
X12745Y20528D1*
X12774Y20538D1*
X12803Y20543D1*
X12833Y20546D1*
X12863Y20545D1*
X12893Y20541D1*
X12922Y20533D1*
X12949Y20522D1*
X12976Y20508D1*
X13001Y20491D1*
X13023Y20471D1*
X13043Y20449D1*
X13061Y20424D1*
X13075Y20398D1*
X13087Y20371D1*
X13095Y20342D1*
X13100Y20312D1*
X13102Y20284D1*
X13100Y20254D1*
X13095Y20224D1*
X13087Y20195D1*
X13075Y20168D1*
X13060Y20142D1*
X13042Y20117D1*
X13022Y20095D1*
X13000Y20076D1*
X12975Y20059D1*
X12948Y20045D1*
X12920Y20034D1*
X12891Y20026D1*
X12862Y20022D1*
X12832Y20021D1*
X12802Y20024D1*
X12772Y20030D1*
X12744Y20039D1*
X12717Y20052D1*
X12691Y20067D1*
X12667Y20086D1*
X12646Y20107D1*
X12623Y20135D1*
X12299D1*
X12077D1*
X12079Y20107D1*
X12078Y20077D1*
X12073Y20048D1*
X12064Y20019D1*
X12052Y19991D1*
X12038Y19965D1*
X12020Y19941D1*
X12000Y19919D1*
X11977Y19899D1*
X11952Y19882D1*
X11926Y19868D1*
X11898Y19857D1*
X11869Y19850D1*
X11839Y19846D1*
X11809Y19845D1*
X11779Y19847D1*
X11750Y19853D1*
X11721Y19863D1*
X11694Y19875D1*
X11669Y19891D1*
X11645Y19909D1*
X11623Y19930D1*
X11604Y19953D1*
X11588Y19978D1*
X11575Y20005D1*
X11565Y20034D1*
X11558Y20063D1*
X11555Y20093D1*
Y20123D1*
X11559Y20152D1*
X11565Y20182D1*
X11576Y20210D1*
X11589Y20237D1*
X11605Y20262D1*
X11624Y20285D1*
X11655Y20313D1*
X11666Y20356D1*
X11679Y20382D1*
X11707Y20417D1*
X11699Y20424D1*
X6832D1*
X6850Y18612D2*
X6847Y18546D1*
X6837Y18481D1*
X6821Y18417D1*
X6799Y18355D1*
X6772Y18295D1*
X6738Y18238D1*
X6700Y18184D1*
X6657Y18134D1*
X6609Y18088D1*
X6558Y18047D1*
X6502Y18011D1*
X6444Y17981D1*
X6383Y17956D1*
X6320Y17937D1*
X6255Y17923D1*
X6190Y17916D1*
X6124Y17915D1*
X6058Y17921D1*
X5993Y17932D1*
X5929Y17950D1*
X5868Y17973D1*
X5808Y18002D1*
X5752Y18037D1*
X5699Y18076D1*
X5651Y18121D1*
X5606Y18170D1*
X5566Y18222D1*
X5532Y18278D1*
X5503Y18338D1*
X5479Y18399D1*
X5462Y18463D1*
X5450Y18528D1*
X5445Y18594D1*
X5446Y18660D1*
X5453Y18725D1*
X5466Y18790D1*
X5485Y18853D1*
X5510Y18914D1*
X5540Y18973D1*
X5576Y19028D1*
X5617Y19080D1*
X5663Y19127D1*
X5713Y19170D1*
X5766Y19209D1*
X5823Y19242D1*
X5883Y19270D1*
X5946Y19291D1*
X6010Y19307D1*
X6075Y19317D1*
X6141Y19321D1*
X6207Y19318D1*
X6272Y19310D1*
X6336Y19295D1*
X6399Y19274D1*
X6459Y19248D1*
X6517Y19216D1*
X6572Y19179D1*
X6622Y19136D1*
X6669Y19089D1*
X6711Y19039D1*
X6748Y18984D1*
X6779Y18926D1*
X6805Y18865D1*
X6826Y18803D1*
X6840Y18738D1*
X6848Y18673D1*
X6850Y18612D1*
X6831Y16487D2*
X6810Y16414D1*
X6787Y16359D1*
X6760Y16305D1*
X6729Y16254D1*
X6693Y16206D1*
X6653Y16161D1*
X6609Y16120D1*
X6563Y16082D1*
X6513Y16049D1*
X6460Y16020D1*
X6405Y15996D1*
X6349Y15976D1*
X6291Y15961D1*
X6231Y15952D1*
X6172Y15947D1*
X6112D1*
X6052Y15953D1*
X5993Y15964D1*
X5935Y15979D1*
X5879Y16000D1*
X5824Y16025D1*
X5772Y16055D1*
X5723Y16089D1*
X5677Y16127D1*
X5634Y16169D1*
X5595Y16215D1*
X5560Y16264D1*
X5529Y16315D1*
X5503Y16369D1*
X5481Y16425D1*
X5464Y16483D1*
X5453Y16542D1*
X5446Y16601D1*
X5444Y16661D1*
X5448Y16721D1*
X5457Y16780D1*
X5470Y16839D1*
X5489Y16896D1*
X5512Y16951D1*
X5540Y17004D1*
X5573Y17055D1*
X5609Y17102D1*
X5650Y17146D1*
X5694Y17187D1*
X5742Y17224D1*
X5792Y17256D1*
X5845Y17284D1*
X5900Y17308D1*
X5957Y17326D1*
X6016Y17340D1*
X6075Y17349D1*
X6135Y17352D1*
X6195Y17351D1*
X6254Y17344D1*
X6313Y17333D1*
X6371Y17316D1*
X6427Y17295D1*
X6481Y17268D1*
X6532Y17238D1*
X6581Y17203D1*
X6627Y17164D1*
X6669Y17121D1*
X6707Y17075D1*
X6741Y17026D1*
X6771Y16974D1*
X6797Y16919D1*
X6817Y16863D1*
X6831Y16811D1*
X7137Y16812D1*
X7790D1*
X7820Y16809D1*
X7849Y16801D1*
X7875Y16788D1*
X7905Y16764D1*
X7916Y16753D1*
X7971D1*
X8001Y16749D1*
X8029Y16741D1*
X8057Y16730D1*
X8084Y16716D1*
X8109Y16699D1*
X8131Y16679D1*
X8151Y16657D1*
X8169Y16633D1*
X8183Y16607D1*
X8195Y16579D1*
X8203Y16550D1*
X8208Y16521D1*
X8210Y16492D1*
X8208Y16462D1*
X8203Y16433D1*
X8195Y16404D1*
X8183Y16376D1*
X8168Y16350D1*
X8150Y16326D1*
X8130Y16304D1*
X8107Y16284D1*
X8083Y16267D1*
X8056Y16253D1*
X8028Y16242D1*
X7999Y16235D1*
X7970Y16231D1*
X7940Y16230D1*
X7910Y16232D1*
X7880Y16238D1*
X7852Y16248D1*
X7825Y16260D1*
X7799Y16276D1*
X7775Y16294D1*
X7754Y16315D1*
X7735Y16338D1*
X7719Y16363D1*
X7705Y16390D1*
X7695Y16419D1*
X7689Y16448D1*
X7685Y16488D1*
X7550Y16487D1*
X6831D1*
X6850Y14675D2*
X6847Y14609D1*
X6837Y14544D1*
X6821Y14480D1*
X6799Y14418D1*
X6772Y14358D1*
X6738Y14301D1*
X6700Y14247D1*
X6657Y14197D1*
X6609Y14151D1*
X6558Y14110D1*
X6502Y14074D1*
X6444Y14044D1*
X6383Y14019D1*
X6320Y14000D1*
X6255Y13986D1*
X6190Y13979D1*
X6124Y13978D1*
X6058Y13984D1*
X5993Y13995D1*
X5929Y14013D1*
X5868Y14036D1*
X5808Y14065D1*
X5752Y14100D1*
X5699Y14139D1*
X5651Y14184D1*
X5606Y14233D1*
X5566Y14285D1*
X5532Y14341D1*
X5503Y14401D1*
X5479Y14462D1*
X5462Y14526D1*
X5450Y14591D1*
X5445Y14657D1*
X5446Y14723D1*
X5453Y14788D1*
X5466Y14853D1*
X5485Y14916D1*
X5510Y14977D1*
X5540Y15036D1*
X5576Y15091D1*
X5617Y15143D1*
X5663Y15190D1*
X5713Y15233D1*
X5766Y15272D1*
X5823Y15305D1*
X5883Y15333D1*
X5946Y15354D1*
X6010Y15370D1*
X6075Y15380D1*
X6141Y15384D1*
X6207Y15381D1*
X6272Y15373D1*
X6336Y15358D1*
X6399Y15337D1*
X6459Y15311D1*
X6517Y15279D1*
X6572Y15242D1*
X6622Y15199D1*
X6669Y15152D1*
X6711Y15102D1*
X6748Y15047D1*
X6779Y14989D1*
X6805Y14928D1*
X6826Y14866D1*
X6840Y14801D1*
X6848Y14736D1*
X6850Y14675D1*
X19220Y14555D2*
X19216Y14489D1*
X19206Y14423D1*
X19191Y14359D1*
X19169Y14297D1*
X19141Y14237D1*
X19108Y14180D1*
X19070Y14126D1*
X19027Y14076D1*
X18979Y14031D1*
X18927Y13990D1*
X18872Y13954D1*
X18814Y13923D1*
X18753Y13898D1*
X18689Y13879D1*
X18625Y13866D1*
X18559Y13859D1*
X18493Y13858D1*
X18427Y13863D1*
X18362Y13875D1*
X18299Y13892D1*
X18237Y13916D1*
X18178Y13945D1*
X18122Y13979D1*
X18069Y14019D1*
X18020Y14063D1*
X17976Y14112D1*
X17936Y14165D1*
X17901Y14221D1*
X17872Y14280D1*
X17849Y14342D1*
X17831Y14405D1*
X17820Y14470D1*
X17814Y14536D1*
X17815Y14602D1*
X17822Y14668D1*
X17835Y14732D1*
X17854Y14796D1*
X17879Y14857D1*
X17910Y14915D1*
X17946Y14970D1*
X17987Y15022D1*
X18032Y15070D1*
X18082Y15113D1*
X18136Y15151D1*
X18193Y15184D1*
X18253Y15212D1*
X18315Y15234D1*
X18379Y15250D1*
X18445Y15260D1*
X18510Y15263D1*
X18576Y15261D1*
X18642Y15252D1*
X18706Y15238D1*
X18769Y15217D1*
X18829Y15190D1*
X18887Y15158D1*
X18941Y15121D1*
X18992Y15079D1*
X19038Y15032D1*
X19080Y14981D1*
X19117Y14926D1*
X19149Y14869D1*
X19175Y14808D1*
X19195Y14745D1*
X19210Y14681D1*
X19218Y14615D1*
X19220Y14555D1*
X19219Y16499D2*
X19214Y16439D1*
X19204Y16380D1*
X19189Y16322D1*
X19169Y16266D1*
X19144Y16211D1*
X19114Y16159D1*
X19081Y16109D1*
X19043Y16063D1*
X19001Y16020D1*
X18956Y15980D1*
X18908Y15945D1*
X18856Y15913D1*
X18803Y15887D1*
X18747Y15865D1*
X18689Y15848D1*
X18631Y15835D1*
X18571Y15828D1*
X18511Y15826D1*
X18451Y15829D1*
X18392Y15837D1*
X18333Y15851D1*
X18276Y15869D1*
X18221Y15892D1*
X18167Y15919D1*
X18117Y15951D1*
X18069Y15987D1*
X18024Y16028D1*
X17983Y16071D1*
X17946Y16119D1*
X17913Y16169D1*
X17885Y16221D1*
X17861Y16276D1*
X17842Y16333D1*
X17828Y16392D1*
X17818Y16451D1*
X17814Y16511D1*
X17815Y16571D1*
X17821Y16630D1*
X17833Y16689D1*
X17849Y16747D1*
X17870Y16803D1*
X17895Y16857D1*
X17926Y16909D1*
X17960Y16958D1*
X17999Y17004D1*
X18041Y17047D1*
X18087Y17085D1*
X18136Y17120D1*
X18188Y17150D1*
X18242Y17176D1*
X18298Y17197D1*
X18356Y17213D1*
X18415Y17225D1*
X18474Y17231D1*
X18534Y17232D1*
X18594Y17228D1*
X18654Y17219D1*
X18712Y17204D1*
X18769Y17185D1*
X18824Y17162D1*
X18877Y17133D1*
X18927Y17100D1*
X18974Y17063D1*
X19018Y17022D1*
X19058Y16978D1*
X19094Y16930D1*
X19126Y16879D1*
X19154Y16826D1*
X19177Y16771D1*
X19195Y16714D1*
X19209Y16655D1*
X19217Y16596D1*
X19220Y16529D1*
X19219Y16499D1*
X19220Y18492D2*
X19216Y18426D1*
X19206Y18361D1*
X19191Y18297D1*
X19169Y18235D1*
X19141Y18175D1*
X19108Y18118D1*
X19070Y18064D1*
X19027Y18014D1*
X18979Y17968D1*
X18927Y17927D1*
X18872Y17891D1*
X18814Y17861D1*
X18753Y17836D1*
X18689Y17817D1*
X18625Y17803D1*
X18559Y17796D1*
X18493Y17795D1*
X18427Y17801D1*
X18362Y17812D1*
X18299Y17830D1*
X18237Y17853D1*
X18178Y17882D1*
X18122Y17917D1*
X18069Y17956D1*
X18020Y18001D1*
X17976Y18050D1*
X17936Y18102D1*
X17901Y18158D1*
X17872Y18218D1*
X17849Y18279D1*
X17831Y18343D1*
X17820Y18408D1*
X17814Y18474D1*
X17815Y18540D1*
X17822Y18605D1*
X17835Y18670D1*
X17854Y18733D1*
X17879Y18794D1*
X17910Y18853D1*
X17946Y18908D1*
X17987Y18960D1*
X18032Y19007D1*
X18082Y19051D1*
X18136Y19089D1*
X18193Y19122D1*
X18253Y19150D1*
X18315Y19171D1*
X18379Y19187D1*
X18445Y19197D1*
X18510Y19201D1*
X18576Y19198D1*
X18642Y19190D1*
X18706Y19175D1*
X18769Y19154D1*
X18829Y19128D1*
X18887Y19096D1*
X18941Y19059D1*
X18992Y19016D1*
X19038Y18970D1*
X19080Y18919D1*
X19117Y18864D1*
X19149Y18806D1*
X19175Y18745D1*
X19195Y18683D1*
X19210Y18618D1*
X19218Y18553D1*
X19220Y18492D1*
X19219Y20437D2*
X19214Y20377D1*
X19204Y20318D1*
X19189Y20260D1*
X19169Y20203D1*
X19144Y20149D1*
X19114Y20096D1*
X19081Y20047D1*
X19043Y20000D1*
X19001Y19957D1*
X18956Y19918D1*
X18908Y19882D1*
X18856Y19851D1*
X18803Y19824D1*
X18747Y19802D1*
X18689Y19785D1*
X18631Y19773D1*
X18571Y19766D1*
X18511Y19764D1*
X18451Y19767D1*
X18392Y19775D1*
X18333Y19788D1*
X18276Y19806D1*
X18221Y19829D1*
X18167Y19857D1*
X18117Y19889D1*
X18069Y19925D1*
X18024Y19965D1*
X17983Y20009D1*
X17946Y20056D1*
X17913Y20106D1*
X17885Y20159D1*
X17861Y20214D1*
X17842Y20271D1*
X17828Y20329D1*
X17818Y20388D1*
X17814Y20448D1*
X17815Y20508D1*
X17821Y20568D1*
X17833Y20627D1*
X17849Y20685D1*
X17870Y20741D1*
X17895Y20795D1*
X17926Y20847D1*
X17960Y20896D1*
X17999Y20942D1*
X18041Y20984D1*
X18087Y21023D1*
X18136Y21057D1*
X18188Y21088D1*
X18242Y21113D1*
X18298Y21135D1*
X18356Y21151D1*
X18415Y21162D1*
X18474Y21168D1*
X18534Y21169D1*
X18594Y21165D1*
X18654Y21156D1*
X18712Y21142D1*
X18769Y21123D1*
X18824Y21099D1*
X18877Y21071D1*
X18927Y21038D1*
X18974Y21001D1*
X19018Y20960D1*
X19058Y20915D1*
X19094Y20868D1*
X19126Y20817D1*
X19154Y20764D1*
X19177Y20708D1*
X19195Y20651D1*
X19209Y20593D1*
X19217Y20533D1*
X19220Y20467D1*
X19219Y20437D1*
X19220Y22429D2*
X19216Y22364D1*
X19206Y22298D1*
X19191Y22234D1*
X19169Y22172D1*
X19141Y22112D1*
X19108Y22055D1*
X19070Y22001D1*
X19027Y21951D1*
X18979Y21906D1*
X18927Y21865D1*
X18872Y21829D1*
X18814Y21798D1*
X18753Y21773D1*
X18689Y21754D1*
X18625Y21741D1*
X18559Y21734D1*
X18493Y21733D1*
X18427Y21738D1*
X18362Y21750D1*
X18299Y21767D1*
X18237Y21791D1*
X18178Y21820D1*
X18122Y21854D1*
X18069Y21894D1*
X18020Y21938D1*
X17976Y21987D1*
X17936Y22040D1*
X17901Y22096D1*
X17872Y22155D1*
X17849Y22217D1*
X17831Y22280D1*
X17820Y22345D1*
X17814Y22411D1*
X17815Y22477D1*
X17822Y22543D1*
X17835Y22607D1*
X17854Y22670D1*
X17879Y22732D1*
X17910Y22790D1*
X17946Y22845D1*
X17987Y22897D1*
X18032Y22945D1*
X18082Y22988D1*
X18136Y23026D1*
X18193Y23059D1*
X18253Y23087D1*
X18315Y23109D1*
X18379Y23125D1*
X18445Y23135D1*
X18510Y23138D1*
X18576Y23136D1*
X18642Y23127D1*
X18706Y23113D1*
X18769Y23092D1*
X18829Y23065D1*
X18887Y23033D1*
X18941Y22996D1*
X18992Y22954D1*
X19038Y22907D1*
X19080Y22856D1*
X19117Y22801D1*
X19149Y22743D1*
X19175Y22683D1*
X19195Y22620D1*
X19210Y22556D1*
X19218Y22490D1*
X19220Y22429D1*
X19219Y24374D2*
X19214Y24314D1*
X19204Y24255D1*
X19189Y24197D1*
X19169Y24141D1*
X19144Y24086D1*
X19114Y24034D1*
X19081Y23984D1*
X19043Y23938D1*
X19001Y23894D1*
X18956Y23855D1*
X18908Y23820D1*
X18856Y23788D1*
X18803Y23762D1*
X18747Y23740D1*
X18689Y23723D1*
X18631Y23710D1*
X18571Y23703D1*
X18511Y23701D1*
X18451Y23704D1*
X18392Y23712D1*
X18333Y23725D1*
X18276Y23744D1*
X18221Y23767D1*
X18167Y23794D1*
X18117Y23826D1*
X18069Y23862D1*
X18024Y23903D1*
X17983Y23946D1*
X17946Y23993D1*
X17913Y24044D1*
X17885Y24096D1*
X17861Y24151D1*
X17842Y24208D1*
X17828Y24266D1*
X17818Y24326D1*
X17814Y24386D1*
X17815Y24446D1*
X17821Y24505D1*
X17833Y24564D1*
X17849Y24622D1*
X17870Y24678D1*
X17895Y24732D1*
X17926Y24784D1*
X17960Y24833D1*
X17999Y24879D1*
X18041Y24921D1*
X18087Y24960D1*
X18136Y24995D1*
X18188Y25025D1*
X18242Y25051D1*
X18298Y25072D1*
X18356Y25088D1*
X18415Y25099D1*
X18474Y25106D1*
X18534Y25107D1*
X18594Y25103D1*
X18654Y25094D1*
X18712Y25079D1*
X18769Y25060D1*
X18824Y25036D1*
X18877Y25008D1*
X18927Y24975D1*
X18974Y24938D1*
X19018Y24897D1*
X19058Y24853D1*
X19094Y24805D1*
X19126Y24754D1*
X19154Y24701D1*
X19177Y24646D1*
X19195Y24589D1*
X19209Y24530D1*
X19217Y24471D1*
X19220Y24404D1*
X19219Y24374D1*
X11932Y22876D2*
X11926Y22817D1*
X11914Y22758D1*
X11896Y22700D1*
X11873Y22645D1*
X11845Y22592D1*
X11811Y22543D1*
X11773Y22497D1*
X11730Y22455D1*
X11683Y22417D1*
X11633Y22384D1*
X11580Y22357D1*
X11524Y22334D1*
X11466Y22318D1*
X11407Y22307D1*
X11348Y22302D1*
X11288Y22303D1*
X11228Y22310D1*
X11169Y22323D1*
X11112Y22341D1*
X11058Y22366D1*
X11005Y22395D1*
X10956Y22430D1*
X10911Y22469D1*
X10870Y22512D1*
X10833Y22560D1*
X10801Y22610D1*
X10774Y22664D1*
X10753Y22720D1*
X10737Y22778D1*
X10727Y22837D1*
X10724Y22897D1*
X10726Y22957D1*
X10734Y23016D1*
X10747Y23075D1*
X10767Y23132D1*
X10792Y23186D1*
X10822Y23238D1*
X10858Y23286D1*
X10898Y23331D1*
X10942Y23371D1*
X10990Y23407D1*
X11041Y23438D1*
X11095Y23464D1*
X11152Y23485D1*
X11210Y23499D1*
X11269Y23508D1*
X11329Y23511D1*
X11389Y23508D1*
X11448Y23499D1*
X11507Y23484D1*
X11563Y23463D1*
X11617Y23437D1*
X11668Y23406D1*
X11716Y23370D1*
X11760Y23329D1*
X11800Y23284D1*
X11835Y23236D1*
X11865Y23184D1*
X11890Y23129D1*
X11909Y23072D1*
X11923Y23014D1*
X11931Y22955D1*
X11933Y22906D1*
X11932Y22876D1*
X5776Y22900D2*
X5772Y22840D1*
X5763Y22780D1*
X5748Y22722D1*
X5727Y22666D1*
X5700Y22612D1*
X5669Y22562D1*
X5632Y22514D1*
X5591Y22470D1*
X5546Y22431D1*
X5497Y22396D1*
X5445Y22366D1*
X5390Y22342D1*
X5333Y22323D1*
X5275Y22310D1*
X5215Y22303D1*
X5155Y22301D1*
X5095Y22306D1*
X5036Y22316D1*
X4978Y22333D1*
X4923Y22355D1*
X4869Y22382D1*
X4819Y22414D1*
X4772Y22452D1*
X4729Y22494D1*
X4690Y22540D1*
X4656Y22589D1*
X4628Y22642D1*
X4604Y22697D1*
X4586Y22754D1*
X4574Y22813D1*
X4568Y22872D1*
X4567Y22932D1*
X4573Y22992D1*
X4585Y23051D1*
X4602Y23108D1*
X4625Y23164D1*
X4653Y23217D1*
X4686Y23267D1*
X4725Y23313D1*
X4767Y23355D1*
X4814Y23393D1*
X4864Y23426D1*
X4917Y23454D1*
X4972Y23476D1*
X5030Y23493D1*
X5089Y23504D1*
X5149Y23510D1*
X5209Y23509D1*
X5268Y23502D1*
X5327Y23490D1*
X5384Y23471D1*
X5439Y23448D1*
X5491Y23418D1*
X5541Y23384D1*
X5586Y23345D1*
X5628Y23302D1*
X5665Y23255D1*
X5697Y23204D1*
X5724Y23151D1*
X5746Y23095D1*
X5762Y23037D1*
X5772Y22978D1*
X5776Y22918D1*
Y22900D1*
X7775Y22876D2*
X7769Y22816D1*
X7758Y22757D1*
X7740Y22700D1*
X7717Y22644D1*
X7688Y22592D1*
X7655Y22542D1*
X7616Y22496D1*
X7573Y22454D1*
X7527Y22416D1*
X7476Y22384D1*
X7423Y22356D1*
X7368Y22334D1*
X7310Y22317D1*
X7251Y22306D1*
X7191Y22301D1*
X7131Y22302D1*
X7072Y22309D1*
X7013Y22322D1*
X6956Y22341D1*
X6901Y22365D1*
X6849Y22394D1*
X6800Y22429D1*
X6754Y22468D1*
X6713Y22512D1*
X6676Y22559D1*
X6644Y22610D1*
X6618Y22663D1*
X6596Y22719D1*
X6581Y22777D1*
X6571Y22837D1*
X6567Y22896D1*
X6569Y22956D1*
X6577Y23016D1*
X6591Y23074D1*
X6611Y23131D1*
X6636Y23185D1*
X6666Y23237D1*
X6701Y23285D1*
X6741Y23330D1*
X6786Y23371D1*
X6834Y23407D1*
X6885Y23438D1*
X6939Y23464D1*
X6995Y23484D1*
X7054Y23498D1*
X7113Y23507D1*
X7173Y23510D1*
X7233Y23507D1*
X7292Y23498D1*
X7350Y23483D1*
X7406Y23463D1*
X7461Y23437D1*
X7512Y23405D1*
X7560Y23369D1*
X7604Y23328D1*
X7643Y23284D1*
X7678Y23235D1*
X7709Y23183D1*
X7733Y23129D1*
X7753Y23072D1*
X7766Y23013D1*
X7774Y22954D1*
X7776Y22906D1*
X7775Y22876D1*
X9932Y22899D2*
X9929Y22840D1*
X9919Y22780D1*
X9904Y22722D1*
X9883Y22666D1*
X9857Y22612D1*
X9825Y22561D1*
X9788Y22514D1*
X9747Y22470D1*
X9702Y22431D1*
X9653Y22396D1*
X9601Y22366D1*
X9546Y22342D1*
X9489Y22323D1*
X9431Y22310D1*
X9371Y22302D1*
X9311Y22301D1*
X9252Y22306D1*
X9193Y22316D1*
X9135Y22333D1*
X9079Y22354D1*
X9026Y22382D1*
X8975Y22414D1*
X8928Y22452D1*
X8885Y22494D1*
X8847Y22539D1*
X8813Y22589D1*
X8784Y22641D1*
X8760Y22697D1*
X8743Y22754D1*
X8730Y22813D1*
X8724Y22872D1*
Y22932D1*
X8729Y22992D1*
X8741Y23051D1*
X8758Y23108D1*
X8781Y23164D1*
X8809Y23217D1*
X8843Y23266D1*
X8881Y23313D1*
X8924Y23355D1*
X8970Y23393D1*
X9020Y23426D1*
X9073Y23454D1*
X9129Y23476D1*
X9186Y23493D1*
X9245Y23504D1*
X9305Y23510D1*
X9365Y23509D1*
X9425Y23502D1*
X9483Y23490D1*
X9540Y23471D1*
X9595Y23447D1*
X9648Y23418D1*
X9697Y23384D1*
X9743Y23345D1*
X9784Y23302D1*
X9821Y23255D1*
X9853Y23204D1*
X9880Y23150D1*
X9902Y23095D1*
X9918Y23037D1*
X9928Y22978D1*
X9932Y22918D1*
Y22899D1*
X14089Y22900D2*
X14085Y22840D1*
X14076Y22781D1*
X14061Y22723D1*
X14040Y22667D1*
X14013Y22613D1*
X13982Y22562D1*
X13945Y22514D1*
X13904Y22471D1*
X13859Y22431D1*
X13810Y22396D1*
X13758Y22367D1*
X13703Y22342D1*
X13646Y22323D1*
X13588Y22310D1*
X13528Y22303D1*
X13468Y22302D1*
X13408Y22306D1*
X13349Y22317D1*
X13291Y22333D1*
X13236Y22355D1*
X13182Y22382D1*
X13132Y22415D1*
X13085Y22452D1*
X13042Y22494D1*
X13003Y22540D1*
X12969Y22589D1*
X12941Y22642D1*
X12917Y22697D1*
X12899Y22754D1*
X12887Y22813D1*
X12881Y22873D1*
Y22933D1*
X12886Y22992D1*
X12898Y23051D1*
X12915Y23109D1*
X12938Y23164D1*
X12966Y23217D1*
X13000Y23267D1*
X13038Y23313D1*
X13080Y23355D1*
X13127Y23393D1*
X13177Y23426D1*
X13230Y23454D1*
X13285Y23477D1*
X13343Y23494D1*
X13402Y23505D1*
X13462Y23510D1*
X13522Y23509D1*
X13581Y23503D1*
X13640Y23490D1*
X13697Y23472D1*
X13752Y23448D1*
X13804Y23419D1*
X13854Y23385D1*
X13899Y23346D1*
X13941Y23302D1*
X13978Y23255D1*
X14010Y23205D1*
X14037Y23151D1*
X14059Y23095D1*
X14075Y23037D1*
X14085Y22978D1*
X14089Y22918D1*
Y22900D1*
X16089Y22876D2*
X16083Y22817D1*
X16071Y22758D1*
X16053Y22700D1*
X16030Y22645D1*
X16002Y22592D1*
X15968Y22543D1*
X15930Y22497D1*
X15887Y22455D1*
X15840Y22417D1*
X15790Y22384D1*
X15737Y22357D1*
X15681Y22334D1*
X15623Y22318D1*
X15564Y22307D1*
X15505Y22302D1*
X15445Y22303D1*
X15385Y22310D1*
X15326Y22323D1*
X15269Y22341D1*
X15214Y22366D1*
X15162Y22395D1*
X15113Y22430D1*
X15068Y22469D1*
X15026Y22512D1*
X14990Y22560D1*
X14958Y22610D1*
X14931Y22664D1*
X14910Y22720D1*
X14894Y22778D1*
X14884Y22837D1*
X14880Y22897D1*
X14883Y22957D1*
X14891Y23016D1*
X14904Y23075D1*
X14924Y23131D1*
X14949Y23186D1*
X14979Y23238D1*
X15015Y23286D1*
X15055Y23331D1*
X15099Y23371D1*
X15147Y23407D1*
X15198Y23438D1*
X15252Y23464D1*
X15309Y23485D1*
X15367Y23499D1*
X15426Y23508D1*
X15486Y23511D1*
X15546Y23508D1*
X15605Y23499D1*
X15663Y23484D1*
X15720Y23463D1*
X15774Y23437D1*
X15825Y23406D1*
X15873Y23370D1*
X15917Y23329D1*
X15957Y23284D1*
X15992Y23236D1*
X16022Y23184D1*
X16047Y23129D1*
X16066Y23072D1*
X16080Y23014D1*
X16088Y22955D1*
X16089Y22906D1*
Y22876D1*
X12204Y14632D2*
X12198Y14603D1*
X12190Y14574D1*
X12178Y14546D1*
X12164Y14520D1*
X12146Y14496D1*
X12126Y14474D1*
X12103Y14454D1*
X12078Y14437D1*
X12052Y14423D1*
X12024Y14412D1*
X11995Y14405D1*
X11965Y14401D1*
X11935Y14400D1*
X11905Y14402D1*
X11876Y14408D1*
X11847Y14418D1*
X11820Y14430D1*
X11794Y14446D1*
X11771Y14464D1*
X11749Y14485D1*
X11730Y14508D1*
X11714Y14533D1*
X11701Y14560D1*
X11691Y14589D1*
X11684Y14618D1*
X11681Y14648D1*
Y14678D1*
X11684Y14707D1*
X11691Y14737D1*
X11701Y14765D1*
X11715Y14792D1*
X11731Y14817D1*
X11750Y14840D1*
X11772Y14861D1*
X11795Y14879D1*
X11821Y14895D1*
X11848Y14907D1*
X11877Y14916D1*
X11906Y14922D1*
X11936Y14924D1*
X11973Y14922D1*
X12066Y15015D1*
Y16467D1*
X12034Y16495D1*
X12015Y16518D1*
X11999Y16543D1*
X11986Y16570D1*
X11976Y16599D1*
X11969Y16628D1*
X11966Y16658D1*
Y16688D1*
X11970Y16717D1*
X11976Y16747D1*
X11987Y16775D1*
X12000Y16802D1*
X12016Y16827D1*
X12035Y16850D1*
X12057Y16871D1*
X12081Y16889D1*
X12106Y16904D1*
X12134Y16917D1*
X12162Y16926D1*
X12192Y16932D1*
X12221Y16934D1*
X12251Y16933D1*
X12281Y16929D1*
X12310Y16921D1*
X12338Y16910D1*
X12364Y16896D1*
X12389Y16879D1*
X12412Y16859D1*
X12433Y16835D1*
X12768Y16834D1*
X14087D1*
X14122Y16871D1*
X14145Y16889D1*
X14171Y16904D1*
X14198Y16917D1*
X14227Y16926D1*
X14256Y16932D1*
X14286Y16934D1*
X14316Y16933D1*
X14346Y16929D1*
X14375Y16921D1*
X14403Y16910D1*
X14429Y16896D1*
X14454Y16879D1*
X14476Y16859D1*
X14497Y16837D1*
X14514Y16813D1*
X14529Y16787D1*
X14540Y16759D1*
X14549Y16730D1*
X14554Y16701D1*
X14555Y16672D1*
X14553Y16642D1*
X14548Y16613D1*
X14540Y16584D1*
X14528Y16556D1*
X14513Y16530D1*
X14496Y16506D1*
X14475Y16484D1*
X14453Y16464D1*
X14428Y16447D1*
X14402Y16433D1*
X14374Y16422D1*
X14345Y16415D1*
X14315Y16411D1*
X14285Y16410D1*
X14255Y16412D1*
X14226Y16418D1*
X14197Y16428D1*
X14170Y16440D1*
X14144Y16456D1*
X14121Y16474D1*
X14087Y16510D1*
X13873D1*
X12434D1*
X12411Y16484D1*
X12390Y16466D1*
Y14947D1*
X12388Y14917D1*
X12379Y14889D1*
X12366Y14862D1*
X12343Y14832D1*
X12203Y14692D1*
X12205Y14662D1*
X12204Y14632D1*
X4157Y4127D2*
X11277Y4126D1*
X11268Y7326D1*
X11272Y7357D1*
X11354Y7569D1*
X11365Y7589D1*
X11401Y7629D1*
X11540Y7767D1*
X11572Y7790D1*
X11805Y7899D1*
Y8397D1*
Y9345D1*
X10837D1*
X10807Y9349D1*
X10780Y9360D1*
X10756Y9379D1*
X10739Y9403D1*
X10728Y9431D1*
X10725Y9457D1*
Y10387D1*
X10729Y10417D1*
X10740Y10444D1*
X10759Y10468D1*
X10783Y10485D1*
X10811Y10496D1*
X10837Y10499D1*
X11019Y10500D1*
X11034Y12223D1*
X10998Y12197D1*
X10972Y12183D1*
X10944Y12172D1*
X10915Y12165D1*
X10885Y12161D1*
X10855Y12160D1*
X10825Y12162D1*
X10796Y12168D1*
X10767Y12178D1*
X10740Y12190D1*
X10715Y12206D1*
X10691Y12224D1*
X10669Y12245D1*
X10650Y12268D1*
X10634Y12293D1*
X10621Y12320D1*
X10611Y12349D1*
X10604Y12378D1*
X10601Y12408D1*
Y12440D1*
X10575D1*
X10545Y12442D1*
X10516Y12448D1*
X10470Y12466D1*
X10469Y11624D1*
X10491Y11604D1*
X10511Y11582D1*
X10528Y11558D1*
X10543Y11532D1*
X10555Y11504D1*
X10563Y11475D1*
X10568Y11446D1*
X10569Y11417D1*
X10568Y11387D1*
X10563Y11358D1*
X10554Y11329D1*
X10542Y11301D1*
X10528Y11275D1*
X10510Y11251D1*
X10490Y11229D1*
X10467Y11209D1*
X10442Y11192D1*
X10416Y11178D1*
X10388Y11167D1*
X10359Y11160D1*
X10329Y11156D1*
X10299Y11155D1*
X10269Y11157D1*
X10240Y11163D1*
X10211Y11173D1*
X10184Y11185D1*
X10159Y11201D1*
X10135Y11219D1*
X10113Y11240D1*
X10094Y11263D1*
X10078Y11288D1*
X10065Y11315D1*
X10055Y11344D1*
X10048Y11373D1*
X10045Y11403D1*
Y11433D1*
X10049Y11462D1*
X10055Y11492D1*
X10066Y11520D1*
X10079Y11547D1*
X10095Y11572D1*
X10114Y11595D1*
X10145Y11623D1*
Y11717D1*
Y13691D1*
X10109Y13723D1*
X10090Y13746D1*
X10074Y13772D1*
X10061Y13798D1*
X10051Y13827D1*
X10044Y13856D1*
X10041Y13886D1*
Y13916D1*
X10045Y13946D1*
X10051Y13975D1*
X10062Y14003D1*
X10075Y14030D1*
X10094Y14059D1*
X10046Y14108D1*
X10005Y14148D1*
Y12195D1*
X10031Y12174D1*
X10051Y12152D1*
X10068Y12128D1*
X10083Y12102D1*
X10095Y12074D1*
X10103Y12045D1*
X10108Y12016D1*
X10109Y11987D1*
X10108Y11957D1*
X10103Y11928D1*
X10094Y11899D1*
X10082Y11871D1*
X10068Y11845D1*
X10050Y11821D1*
X10030Y11799D1*
X10007Y11779D1*
X9982Y11762D1*
X9956Y11748D1*
X9928Y11737D1*
X9899Y11730D1*
X9869Y11726D1*
X9839Y11725D1*
X9809Y11727D1*
X9780Y11733D1*
X9751Y11743D1*
X9724Y11755D1*
X9699Y11771D1*
X9675Y11789D1*
X9653Y11810D1*
X9634Y11833D1*
X9618Y11858D1*
X9605Y11885D1*
X9595Y11914D1*
X9588Y11943D1*
X9585Y11973D1*
Y12003D1*
X9589Y12032D1*
X9595Y12062D1*
X9606Y12090D1*
X9619Y12117D1*
X9635Y12142D1*
X9654Y12165D1*
X9681Y12190D1*
Y13097D1*
Y16285D1*
X9649Y16315D1*
X9630Y16338D1*
X9614Y16363D1*
X9601Y16390D1*
X9591Y16419D1*
X9584Y16448D1*
X9581Y16478D1*
Y16508D1*
X9585Y16537D1*
X9591Y16567D1*
X9602Y16595D1*
X9615Y16622D1*
X9631Y16647D1*
X9650Y16670D1*
X9681Y16698D1*
Y16792D1*
Y18475D1*
X9649Y18503D1*
X9630Y18527D1*
X9614Y18552D1*
X9601Y18579D1*
X9591Y18607D1*
X9584Y18636D1*
X9581Y18666D1*
Y18696D1*
X9585Y18726D1*
X9591Y18755D1*
X9602Y18783D1*
X9615Y18810D1*
X9631Y18835D1*
X9650Y18859D1*
X9672Y18879D1*
X9696Y18898D1*
X9721Y18913D1*
X9749Y18925D1*
X9777Y18935D1*
X9807Y18940D1*
X9836Y18943D1*
X9866Y18942D1*
X9896Y18937D1*
X9925Y18930D1*
X9953Y18919D1*
X9979Y18905D1*
X10004Y18888D1*
X10027Y18868D1*
X10047Y18846D1*
X10064Y18821D1*
X10079Y18795D1*
X10091Y18768D1*
X10099Y18739D1*
X10104Y18709D1*
X10105Y18681D1*
X10104Y18651D1*
X10099Y18621D1*
X10090Y18592D1*
X10078Y18565D1*
X10064Y18539D1*
X10046Y18514D1*
X10026Y18492D1*
X10005Y18474D1*
Y16698D1*
X10027Y16679D1*
X10047Y16657D1*
X10064Y16633D1*
X10079Y16607D1*
X10091Y16579D1*
X10099Y16550D1*
X10104Y16521D1*
X10105Y16492D1*
X10104Y16462D1*
X10099Y16433D1*
X10090Y16404D1*
X10078Y16376D1*
X10064Y16350D1*
X10046Y16326D1*
X10026Y16304D1*
X10005Y16286D1*
Y15677D1*
X10057Y15696D1*
X10087Y15702D1*
X10116Y15704D1*
X10146Y15703D1*
X10176Y15699D1*
X10205Y15691D1*
X10233Y15680D1*
X10259Y15666D1*
X10284Y15649D1*
X10307Y15629D1*
X10327Y15607D1*
X10344Y15583D1*
X10359Y15557D1*
X10371Y15529D1*
X10379Y15500D1*
X10384Y15471D1*
X10385Y15442D1*
X10384Y15412D1*
X10379Y15383D1*
X10370Y15354D1*
X10358Y15326D1*
X10344Y15300D1*
X10326Y15276D1*
X10306Y15254D1*
X10283Y15234D1*
X10258Y15217D1*
X10232Y15203D1*
X10185Y15187D1*
Y15065D1*
X10397Y15277D1*
X10420Y15296D1*
X10446Y15311D1*
X10475Y15320D1*
X10512Y15324D1*
X11357D1*
X11392Y15361D1*
X11415Y15379D1*
X11441Y15395D1*
X11484Y15412D1*
X11440Y15430D1*
X11414Y15446D1*
X11391Y15464D1*
X11369Y15485D1*
X11350Y15508D1*
X11334Y15533D1*
X11321Y15560D1*
X11311Y15589D1*
X11304Y15618D1*
X11301Y15648D1*
Y15678D1*
X11304Y15707D1*
X11311Y15737D1*
X11321Y15765D1*
X11335Y15792D1*
X11351Y15817D1*
X11370Y15840D1*
X11401Y15868D1*
X11400Y15962D1*
Y16501D1*
X11369Y16529D1*
X11350Y16552D1*
X11334Y16578D1*
X11321Y16605D1*
X11311Y16633D1*
X11304Y16662D1*
X11301Y16692D1*
Y16722D1*
X11304Y16752D1*
X11311Y16781D1*
X11321Y16809D1*
X11335Y16836D1*
X11351Y16861D1*
X11370Y16884D1*
X11401Y16912D1*
X11400Y17006D1*
Y17711D1*
X11403Y17740D1*
X11411Y17769D1*
X11425Y17796D1*
X11448Y17825D1*
X11992Y18370D1*
X11991Y18416D1*
X11994Y18446D1*
X12001Y18475D1*
X12011Y18503D1*
X12025Y18530D1*
X12041Y18555D1*
X12060Y18579D1*
X12082Y18599D1*
X12105Y18618D1*
X12131Y18633D1*
X12158Y18645D1*
X12187Y18655D1*
X12216Y18660D1*
X12246Y18663D1*
X12276Y18662D1*
X12306Y18657D1*
X12335Y18650D1*
X12363Y18639D1*
X12389Y18625D1*
X12414Y18608D1*
X12436Y18588D1*
X12457Y18566D1*
X12474Y18541D1*
X12489Y18515D1*
X12500Y18488D1*
X12509Y18459D1*
X12514Y18429D1*
X12515Y18401D1*
X12513Y18371D1*
X12508Y18341D1*
X12500Y18312D1*
X12488Y18285D1*
X12473Y18259D1*
X12456Y18234D1*
X12435Y18212D1*
X12413Y18193D1*
X12388Y18176D1*
X12362Y18162D1*
X12334Y18151D1*
X12305Y18143D1*
X12275Y18139D1*
X12245Y18138D1*
X12222Y18140D1*
X11725Y17643D1*
Y16913D1*
X11767Y16871D1*
X11784Y16847D1*
X11799Y16821D1*
X11810Y16793D1*
X11819Y16764D1*
X11824Y16735D1*
X11825Y16706D1*
X11824Y16676D1*
X11818Y16647D1*
X11810Y16618D1*
X11798Y16590D1*
X11784Y16564D1*
X11766Y16540D1*
X11746Y16518D1*
X11725Y16500D1*
Y15867D1*
X11747Y15849D1*
X11767Y15827D1*
X11784Y15803D1*
X11799Y15777D1*
X11810Y15749D1*
X11819Y15720D1*
X11824Y15691D1*
X11825Y15662D1*
X11824Y15632D1*
X11818Y15603D1*
X11810Y15574D1*
X11798Y15546D1*
X11784Y15520D1*
X11766Y15496D1*
X11746Y15474D1*
X11723Y15454D1*
X11698Y15437D1*
X11672Y15423D1*
X11643Y15412D1*
X11673Y15400D1*
X11699Y15386D1*
X11724Y15369D1*
X11747Y15349D1*
X11767Y15327D1*
X11784Y15303D1*
X11799Y15277D1*
X11810Y15249D1*
X11819Y15220D1*
X11824Y15191D1*
X11825Y15162D1*
X11824Y15132D1*
X11818Y15103D1*
X11810Y15074D1*
X11798Y15046D1*
X11784Y15020D1*
X11766Y14996D1*
X11746Y14974D1*
X11723Y14954D1*
X11698Y14937D1*
X11672Y14923D1*
X11644Y14912D1*
X11615Y14905D1*
X11585Y14901D1*
X11555Y14900D1*
X11525Y14902D1*
X11496Y14908D1*
X11467Y14918D1*
X11440Y14930D1*
X11414Y14946D1*
X11391Y14964D1*
X11357Y15000D1*
X11143D1*
X10579D1*
X10466Y14886D1*
X10465Y14858D1*
X10487Y14839D1*
X10507Y14817D1*
X10524Y14793D1*
X10539Y14767D1*
X10551Y14739D1*
X10559Y14710D1*
X10564Y14681D1*
X10565Y14652D1*
X10564Y14622D1*
X10559Y14593D1*
X10550Y14564D1*
X10538Y14536D1*
X10524Y14510D1*
X10506Y14486D1*
X10486Y14464D1*
X10463Y14444D1*
X10438Y14427D1*
X10412Y14413D1*
X10384Y14402D1*
X10355Y14395D1*
X10325Y14391D1*
X10295Y14390D1*
X10265Y14392D1*
X10236Y14398D1*
X10203Y14410D1*
X10270Y14343D1*
X10953D1*
X13795D1*
X14032Y14579D1*
X14031Y14626D1*
X14034Y14656D1*
X14041Y14685D1*
X14051Y14713D1*
X14065Y14740D1*
X14081Y14765D1*
X14100Y14789D1*
X14122Y14809D1*
X14145Y14828D1*
X14171Y14843D1*
X14198Y14855D1*
X14227Y14865D1*
X14256Y14870D1*
X14286Y14873D1*
X14316Y14872D1*
X14346Y14868D1*
X14375Y14860D1*
X14403Y14849D1*
X14429Y14835D1*
X14454Y14818D1*
X14476Y14798D1*
X14497Y14776D1*
X14514Y14751D1*
X14529Y14725D1*
X14540Y14698D1*
X14549Y14669D1*
X14554Y14639D1*
X14555Y14611D1*
X14553Y14581D1*
X14548Y14551D1*
X14540Y14522D1*
X14528Y14495D1*
X14513Y14469D1*
X14496Y14444D1*
X14475Y14422D1*
X14453Y14403D1*
X14428Y14386D1*
X14402Y14372D1*
X14374Y14361D1*
X14345Y14353D1*
X14315Y14349D1*
X14285Y14348D1*
X14262Y14350D1*
X13977Y14065D1*
X13954Y14046D1*
X13928Y14032D1*
X13900Y14022D1*
X13862Y14018D1*
X12427D1*
X12444Y13994D1*
X12459Y13968D1*
X12470Y13941D1*
X12479Y13912D1*
X12484Y13882D1*
X12485Y13854D1*
X12484Y13824D1*
X12478Y13794D1*
X12470Y13765D1*
X12458Y13738D1*
X12444Y13712D1*
X12426Y13687D1*
X12406Y13665D1*
X12383Y13646D1*
X12358Y13629D1*
X12317Y13609D1*
X13959D1*
X14653Y14302D1*
X14655Y14337D1*
X14654Y14613D1*
X14646Y14645D1*
X14645Y14667D1*
Y16352D1*
X14613Y16380D1*
X14594Y16403D1*
X14578Y16428D1*
X14565Y16455D1*
X14555Y16484D1*
X14548Y16513D1*
X14545Y16543D1*
Y16573D1*
X14549Y16602D1*
X14555Y16632D1*
X14566Y16660D1*
X14579Y16687D1*
X14595Y16712D1*
X14614Y16735D1*
X14636Y16756D1*
X14660Y16774D1*
X14685Y16789D1*
X14713Y16802D1*
X14741Y16811D1*
X14771Y16817D1*
X14800Y16819D1*
X14830Y16818D1*
X14860Y16814D1*
X14889Y16806D1*
X14917Y16795D1*
X14943Y16781D1*
X14968Y16764D1*
X14991Y16744D1*
X15011Y16722D1*
X15028Y16698D1*
X15043Y16672D1*
X15055Y16644D1*
X15063Y16615D1*
X15068Y16586D1*
X15069Y16557D1*
X15068Y16527D1*
X15063Y16498D1*
X15054Y16469D1*
X15042Y16441D1*
X15028Y16415D1*
X15010Y16391D1*
X14990Y16369D1*
X14969Y16351D1*
Y14722D1*
X14977Y14695D1*
X14979Y14661D1*
Y14187D1*
X14977Y14157D1*
X14968Y14128D1*
X14955Y14102D1*
X14937Y14078D1*
X14915Y14057D1*
X14889Y14042D1*
X14847Y14027D1*
X14818Y14009D1*
X14142Y13332D1*
X14119Y13313D1*
X14093Y13298D1*
X14064Y13289D1*
X14027Y13285D1*
X11084D1*
X11026Y13227D1*
X11025Y12627D1*
X11038Y12639D1*
X11041Y13004D1*
X11045Y13034D1*
X11057Y13061D1*
X11076Y13084D1*
X11100Y13102D1*
X11128Y13112D1*
X11153Y13115D1*
X14272Y13116D1*
X14275Y13239D1*
X14279Y13269D1*
X14291Y13296D1*
X14310Y13319D1*
X14335Y13336D1*
X14363Y13347D1*
X14387Y13349D1*
X15357D1*
X15387Y13345D1*
X15414Y13334D1*
X15438Y13315D1*
X15455Y13291D1*
X15466Y13263D1*
X15469Y13237D1*
Y13109D1*
X15567Y13110D1*
X18767Y13109D1*
X20748D1*
X20747Y13457D1*
Y17357D1*
X17787D1*
X17762Y17372D1*
X17757Y17387D1*
Y17577D1*
X17772Y17602D1*
X17787Y17607D1*
X20737D1*
Y21237D1*
X17827D1*
X17802Y21252D1*
X17797Y21267D1*
Y21467D1*
X17812Y21492D1*
X17827Y21497D1*
X20747D1*
Y27747D1*
X12557D1*
Y22277D1*
X12542Y22252D1*
X12527Y22247D1*
X12257D1*
X12232Y22262D1*
X12227Y22277D1*
Y27747D1*
X8427D1*
Y22247D1*
X8412Y22222D1*
X8397Y22217D1*
X8157D1*
X8132Y22232D1*
X8127Y22247D1*
Y27747D1*
X4127D1*
Y21617D1*
X6937D1*
X6962Y21602D1*
X6967Y21587D1*
Y21337D1*
X6964Y21325D1*
X6941Y21307D1*
X4127D1*
Y17767D1*
X6857D1*
X6882Y17752D1*
X6887Y17737D1*
Y17558D1*
X6884Y17545D1*
X6861Y17527D1*
X4127D1*
Y13837D1*
X6817D1*
X6842Y13822D1*
X6847Y13807D1*
Y13628D1*
X6844Y13615D1*
X6821Y13597D1*
X4127D1*
Y4127D1*
X4157D1*
X7766Y8689D2*
D14*
X8420Y8035D1*
Y8689D2*
X7766Y8035D1*
X5650Y11241D2*
X6644Y10247D1*
Y11241D2*
X5650Y10247D1*
Y19115D2*
X6644Y18121D1*
Y19115D2*
X5650Y18121D1*
Y15178D2*
X6644Y14184D1*
Y15178D2*
X5650Y14184D1*
X18020Y15058D2*
X19014Y14064D1*
Y15058D2*
X18020Y14064D1*
Y18995D2*
X19014Y18001D1*
Y18995D2*
X18020Y18001D1*
Y22932D2*
X19014Y21939D1*
Y22932D2*
X18020Y21939D1*
X4744Y23333D2*
X5599Y22478D1*
Y23333D2*
X4744Y22478D1*
X8900Y23333D2*
X9755Y22478D1*
Y23333D2*
X8900Y22478D1*
X13057Y23333D2*
X13912Y22479D1*
Y23333D2*
X13057Y22479D1*
D20*
X8643Y7242D3*
X9721D3*
X10800D3*
X11878D3*
X8093Y8362D3*
X9183D3*
X10261D3*
X11340D3*
D21*
X12422Y8366D3*
D22*
X18512Y9322D3*
Y11291D3*
Y5385D3*
Y7353D3*
X6147Y12712D3*
Y10744D3*
Y20587D3*
Y18618D3*
Y16650D3*
Y14681D3*
X18517Y14561D3*
Y16529D3*
Y18498D3*
Y20467D3*
Y22435D3*
Y24404D3*
D28*
X11328Y22906D3*
X5171D3*
X7172D3*
X9328Y22905D3*
X13484Y22906D3*
X15485D3*
M02*
